<svg width="24" height="24" viewBox="0 0 24 24" fill="none" xmlns="http://www.w3.org/2000/svg">
<path d="M4.85714 5.78564H2" stroke="#172D3A" stroke-miterlimit="10" stroke-linecap="round" stroke-linejoin="round"/>
<path d="M22.0001 5.78564H8.42871" stroke="#172D3A" stroke-miterlimit="10" stroke-linecap="round" stroke-linejoin="round"/>
<path d="M15.5714 12.2144H2" stroke="#172D3A" stroke-miterlimit="10" stroke-linecap="round" stroke-linejoin="round"/>
<path d="M22.0002 12.2144H19.1431" stroke="#172D3A" stroke-miterlimit="10" stroke-linecap="round" stroke-linejoin="round"/>
<path d="M9.85714 18.6428H2" stroke="#172D3A" stroke-miterlimit="10" stroke-linecap="round" stroke-linejoin="round"/>
<path d="M22.0001 18.6428H13.4287" stroke="#172D3A" stroke-miterlimit="10" stroke-linecap="round" stroke-linejoin="round"/>
<path d="M17.4288 13.9999C18.415 13.9999 19.2145 13.2004 19.2145 12.2142C19.2145 11.228 18.415 10.4285 17.4288 10.4285C16.4426 10.4285 15.6431 11.228 15.6431 12.2142C15.6431 13.2004 16.4426 13.9999 17.4288 13.9999Z" stroke="#172D3A" stroke-miterlimit="10" stroke-linecap="round" stroke-linejoin="round"/>
<path d="M6.71443 7.57143C7.70065 7.57143 8.50014 6.77194 8.50014 5.78571C8.50014 4.79949 7.70065 4 6.71443 4C5.7282 4 4.92871 4.79949 4.92871 5.78571C4.92871 6.77194 5.7282 7.57143 6.71443 7.57143Z" stroke="#172D3A" stroke-miterlimit="10" stroke-linecap="round" stroke-linejoin="round"/>
<path d="M11.7144 20.4286C12.7006 20.4286 13.5001 19.6291 13.5001 18.6429C13.5001 17.6567 12.7006 16.8572 11.7144 16.8572C10.7282 16.8572 9.92871 17.6567 9.92871 18.6429C9.92871 19.6291 10.7282 20.4286 11.7144 20.4286Z" stroke="#172D3A" stroke-miterlimit="10" stroke-linecap="round" stroke-linejoin="round"/>
</svg>
