<svg width="32" height="32" viewBox="0 0 32 32" fill="none" xmlns="http://www.w3.org/2000/svg">
<path d="M16 7C8.26875 7 2 15.9878 2 15.9878C2 15.9878 8.26875 24.9757 16 24.9757C23.7312 24.9757 30 15.9878 30 15.9878C30 15.9878 23.7312 7 16 7ZM16 21.5822C14.5163 21.5822 13.0933 20.9928 12.0442 19.9436C10.9951 18.8945 10.4058 17.4716 10.4058 15.9878C10.4058 14.5041 10.9951 13.0812 12.0442 12.0321C13.0933 10.9829 14.5163 10.3935 16 10.3935C17.4837 10.3935 18.9067 10.9829 19.9558 12.0321C21.0049 13.0812 21.5942 14.5041 21.5942 15.9878C21.5942 16.7225 21.4497 17.45 21.1686 18.1287C20.8874 18.8074 20.4753 19.4241 19.9558 19.9436C19.4363 20.4631 18.8196 20.8752 18.1409 21.1563C17.4622 21.4375 16.7347 21.5822 16 21.5822ZM16 19.5375C15.0586 19.5375 14.1556 19.1636 13.4899 18.4979C12.8242 17.8322 12.4503 16.9293 12.4503 15.9878C12.4503 15.0464 12.8242 14.1435 13.4899 13.4778C14.1556 12.8121 15.0586 12.4381 16 12.4381C16.9414 12.4381 17.8444 12.8121 18.5101 13.4778C19.1758 14.1435 19.5497 15.0464 19.5497 15.9878C19.5497 16.454 19.4579 16.9156 19.2795 17.3463C19.1011 17.7769 18.8397 18.1682 18.5101 18.4979C18.1805 18.8275 17.789 19.0889 17.3583 19.2673C16.9277 19.4457 16.4662 19.5375 16 19.5375Z" fill="#4866A2"/>
</svg>
