<svg width="32" height="32" viewBox="0 0 32 32" fill="none" xmlns="http://www.w3.org/2000/svg">
<path d="M30 4.32764L15.0396 19.288L9.59717 13.8455" stroke="#4866A2" stroke-linecap="round" stroke-linejoin="round"/>
<path d="M28.2607 10.4536C28.9363 12.101 29.2833 13.8646 29.2819 15.6452C29.2819 19.2626 27.8452 22.732 25.2881 25.2907C22.731 27.8494 19.2626 29.288 15.6452 29.2903C13.8533 29.2903 12.0791 28.9374 10.4236 28.2516C8.7681 27.5659 7.26382 26.5608 5.99676 25.2938C4.72969 24.0267 3.72464 22.5225 3.0389 20.8669C2.35317 19.2114 2 17.4371 2 15.6452C2 13.8533 2.35317 12.0789 3.0389 10.4234C3.72464 8.7679 4.72969 7.26367 5.99676 5.9966C7.26382 4.72953 8.7681 3.72444 10.4236 3.03871C12.0791 2.35297 13.8533 2.00003 15.6452 2.00003C18.7558 1.99338 21.774 3.05652 24.1938 5.01113" stroke="#4866A2" stroke-linecap="round" stroke-linejoin="round"/>
</svg>
