<svg width="32" height="32" viewBox="0 0 32 32" fill="none" xmlns="http://www.w3.org/2000/svg">
<path d="M15.9061 13.5192C19.0871 13.5192 21.6657 10.9406 21.6657 7.75962C21.6657 4.57867 19.0871 2 15.9061 2C12.7252 2 10.1465 4.57867 10.1465 7.75962C10.1465 10.9406 12.7252 13.5192 15.9061 13.5192Z" stroke="#3738C0" stroke-width="1.5" stroke-miterlimit="10"/>
<path d="M20.0941 15.1648C18.8085 15.8626 17.3689 16.2275 15.9061 16.2262C14.4706 16.2225 13.058 15.8665 11.7921 15.1895C6.54264 16.5142 4 22.7428 4 26.6347V29.317C4 29.4981 4.072 29.6718 4.20008 29.7999C4.32815 29.928 4.50187 29.9999 4.68299 29.9999H27.1787C27.3598 29.9999 27.5336 29.928 27.6616 29.7999C27.7897 29.6718 27.8613 29.4981 27.8613 29.317V26.322C27.8366 22.0681 25.3353 16.3085 20.0941 15.1648Z" stroke="#3738C0" stroke-width="1.5" stroke-miterlimit="10"/>
</svg>
