<svg width="24" height="24" viewBox="0 0 24 24" fill="none" xmlns="http://www.w3.org/2000/svg">
<path d="M18.6522 21.9999H5.6087C4.13043 21.9999 3 20.8694 3 19.3912V6.34771C3 4.86945 4.13043 3.73901 5.6087 3.73901H18.6522C20.1304 3.73901 21.2609 4.86945 21.2609 6.34771V19.3912C21.2609 20.8694 20.1304 21.9999 18.6522 21.9999Z" stroke="#172D3A" stroke-miterlimit="10" stroke-linecap="round" stroke-linejoin="round"/>
<path d="M8.21729 5.47826V2" stroke="#172D3A" stroke-miterlimit="10" stroke-linecap="round" stroke-linejoin="round"/>
<path d="M16.0435 5.47826V2" stroke="#172D3A" stroke-miterlimit="10" stroke-linecap="round" stroke-linejoin="round"/>
<path d="M3 8.08691H21.2609" stroke="#172D3A" stroke-miterlimit="10" stroke-linecap="round" stroke-linejoin="round"/>
<path d="M10.4782 13.1305C10.6521 12.0001 11.5217 11.3914 12.739 11.3914C14.0434 11.3914 14.739 12.174 14.739 13.2174C14.739 14.087 14.1304 14.6087 13.5217 14.7827C14.3043 14.9566 14.9999 15.4783 14.9999 16.6087C14.9999 17.8261 14.0434 18.6087 12.739 18.6087C11.4347 18.6087 10.4782 18.087 10.2173 16.6957" stroke="#172D3A" stroke-miterlimit="10" stroke-linecap="round" stroke-linejoin="round"/>
<path d="M13.4345 15.0435H12.5649" stroke="#172D3A" stroke-miterlimit="10" stroke-linecap="round" stroke-linejoin="round"/>
</svg>
