<svg width="16" height="16" viewBox="0 0 16 16" fill="none" xmlns="http://www.w3.org/2000/svg">
<path d="M8 4C4.65714 4 2 7.85714 2 7.85714C2 7.85714 4.65714 11.7143 8 11.7143C11.3429 11.7143 14 7.85714 14 7.85714C14 7.85714 11.3429 4 8 4ZM8 10C6.8 10 5.85714 9.05714 5.85714 7.85714C5.85714 6.65714 6.8 5.71429 8 5.71429C9.2 5.71429 10.1429 6.65714 10.1429 7.85714C10.2286 9.05714 9.2 10 8 10ZM7.14286 7.85714C7.14286 7.34286 7.48571 7 8 7C8.51429 7 8.85714 7.34286 8.85714 7.85714C8.85714 8.37143 8.51429 8.71429 8 8.71429C7.48571 8.71429 7.14286 8.37143 7.14286 7.85714Z" fill="#4866A2"/>
</svg>
