<svg width="24" height="24" viewBox="0 0 24 24" fill="none" xmlns="http://www.w3.org/2000/svg">
<path d="M2.0133 6.41721C2.77674 10.5207 8.21626 15.7694 8.21626 15.7694C8.21626 15.7694 13.5604 21.2089 17.5685 21.9723C18.8091 22.2586 20.5267 20.2546 21.6719 19.1094C22.1491 18.6323 22.0536 17.8688 21.5765 17.4871L17.8547 14.5288C17.3775 14.1471 16.805 14.2425 16.4232 14.6242L14.9918 16.0557C14.7055 16.342 14.2284 16.4374 13.9421 16.1511C13.2741 15.7694 12.1289 14.9105 10.602 13.3836C9.07513 11.8567 8.31167 10.7116 7.83452 10.0436C7.64366 9.66183 7.64363 9.28011 7.92993 8.99382L9.36138 7.56237C9.7431 7.18065 9.83862 6.51264 9.4569 6.13091L6.49847 2.40913C6.11675 1.93198 5.35335 1.83655 4.8762 2.3137C3.73104 3.45887 1.82243 5.17661 2.0133 6.41721Z" stroke="#3738C0" stroke-width="1.5" stroke-miterlimit="10"/>
</svg>
