<svg width="24" height="24" viewBox="0 0 24 24" fill="none" xmlns="http://www.w3.org/2000/svg">
<path d="M4.16454 14.3291C5.35998 14.3291 6.32908 13.36 6.32908 12.1645C6.32908 10.9691 5.35998 10 4.16454 10C2.9691 10 2 10.9691 2 12.1645C2 13.36 2.9691 14.3291 4.16454 14.3291Z" fill="#172D3A"/>
<path d="M11.957 14.3291C13.1525 14.3291 14.1216 13.36 14.1216 12.1645C14.1216 10.9691 13.1525 10 11.957 10C10.7616 10 9.79248 10.9691 9.79248 12.1645C9.79248 13.36 10.7616 14.3291 11.957 14.3291Z" fill="#172D3A"/>
<path d="M19.8354 14.3291C21.0309 14.3291 22 13.36 22 12.1645C22 10.9691 21.0309 10 19.8354 10C18.64 10 17.6709 10.9691 17.6709 12.1645C17.6709 13.36 18.64 14.3291 19.8354 14.3291Z" fill="#172D3A"/>
</svg>
