<svg width="24" height="24" viewBox="0 0 24 24" fill="none" xmlns="http://www.w3.org/2000/svg">
<path d="M12.7197 10C14.9289 10 16.7197 8.20914 16.7197 6C16.7197 3.79086 14.9289 2 12.7197 2C10.5106 2 8.71973 3.79086 8.71973 6C8.71973 8.20914 10.5106 10 12.7197 10Z" stroke="#3738C0" stroke-miterlimit="10"/>
<path d="M16.16 11.8401C15.04 12.5601 13.76 12.9601 12.4 12.9601C11.04 12.9601 9.75992 12.5601 8.71992 11.8401C5.59992 13.1201 4 17.1201 4 19.6001V21.5201C4 21.7601 4.23998 22.0001 4.47998 22.0001H20.3199C20.5599 22.0001 20.8 21.7601 20.8 21.5201V19.4401C20.72 16.6401 19.28 13.0401 16.16 11.8401Z" stroke="#3738C0" stroke-miterlimit="10"/>
</svg>
