<svg width="32" height="32" viewBox="0 0 32 32" fill="none" xmlns="http://www.w3.org/2000/svg">
<path d="M26.5556 5.11108H6.33333C5.04467 5.11108 4 6.15575 4 7.44442V27.6666C4 28.9553 5.04467 30 6.33333 30H26.5556C27.8442 30 28.8889 28.9553 28.8889 27.6666V7.44442C28.8889 6.15575 27.8442 5.11108 26.5556 5.11108Z" stroke="#3738C0" stroke-width="1.5" stroke-linecap="round" stroke-linejoin="round"/>
<path d="M10.2222 7.44444V2" stroke="#3738C0" stroke-width="1.5" stroke-linecap="round" stroke-linejoin="round"/>
<path d="M22.6667 7.44444V2" stroke="#3738C0" stroke-width="1.5" stroke-linecap="round" stroke-linejoin="round"/>
<path d="M4 10.5557H28.8889" stroke="#3738C0" stroke-width="1.5" stroke-linecap="round" stroke-linejoin="round"/>
<path d="M13.8076 16.9566C14.0721 15.4011 15.1999 14.6233 16.9188 14.6233C18.6376 14.6233 19.6957 15.6422 19.6957 17.1277C19.6841 17.6263 19.5096 18.1074 19.1993 18.4977C18.889 18.8881 18.4599 19.1663 17.9768 19.29C18.5528 19.3882 19.0748 19.6891 19.4484 20.1384C19.8221 20.5876 20.0226 21.1557 20.0143 21.74C20.0143 23.3733 18.7154 24.5088 16.9032 24.5088C15.091 24.5088 13.7921 23.8244 13.4343 21.9344" stroke="#3738C0" stroke-width="1.5" stroke-linecap="round" stroke-linejoin="round"/>
<path d="M18.0001 19.1111H15.6667" stroke="#3738C0" stroke-width="1.5" stroke-linecap="round" stroke-linejoin="round"/>
</svg>
