<svg width="32" height="32" viewBox="0 0 32 32" fill="none" xmlns="http://www.w3.org/2000/svg">
<path d="M7.51367 5.78369H24.1623V28.4864C24.1623 28.8878 24.0029 29.2728 23.7191 29.5566C23.4353 29.8405 23.0502 29.9999 22.6488 29.9999H9.02719C8.62578 29.9999 8.24074 29.8405 7.9569 29.5566C7.67306 29.2728 7.51367 28.8878 7.51367 28.4864V5.78369Z" fill="#4866A2"/>
<path d="M25.6757 5.78369H6" stroke="#4866A2" stroke-width="2" stroke-linecap="round" stroke-linejoin="round"/>
<path d="M15.8379 9.56738V26.216" stroke="white" stroke-width="2" stroke-linecap="round" stroke-linejoin="round"/>
<path d="M12.0542 9.56738V26.216" stroke="white" stroke-width="2" stroke-linecap="round" stroke-linejoin="round"/>
<path d="M19.6216 9.56738V26.216" stroke="white" stroke-width="2" stroke-linecap="round" stroke-linejoin="round"/>
<path d="M13.5678 2H18.1083C18.309 2 18.5015 2.07973 18.6434 2.22165C18.7853 2.36357 18.8651 2.55605 18.8651 2.75676V5.02703H12.811V2.75676C12.811 2.55605 12.8908 2.36357 13.0327 2.22165C13.1747 2.07973 13.3671 2 13.5678 2V2Z" stroke="#4866A2" stroke-width="2" stroke-linecap="round" stroke-linejoin="round"/>
</svg>
