<svg width="32" height="32" viewBox="0 0 32 32" fill="none" xmlns="http://www.w3.org/2000/svg">
<path d="M7.51343 5.78369H24.1621V28.4864C24.1621 28.8878 24.0027 29.2728 23.7188 29.5566C23.435 29.8405 23.05 29.9999 22.6486 29.9999H9.02694C8.62553 29.9999 8.24049 29.8405 7.95666 29.5566C7.67282 29.2728 7.51343 28.8878 7.51343 28.4864V5.78369Z" fill="#172D3A"/>
<path d="M25.6757 5.78369H6" stroke="#172D3A" stroke-width="2" stroke-linecap="round" stroke-linejoin="round"/>
<path d="M15.8379 9.56738V26.216" stroke="white" stroke-width="2" stroke-linecap="round" stroke-linejoin="round"/>
<path d="M12.054 9.56738V26.216" stroke="white" stroke-width="2" stroke-linecap="round" stroke-linejoin="round"/>
<path d="M19.6216 9.56738V26.216" stroke="white" stroke-width="2" stroke-linecap="round" stroke-linejoin="round"/>
<path d="M13.5675 2H18.1081C18.3088 2 18.5012 2.07973 18.6431 2.22165C18.7851 2.36357 18.8648 2.55605 18.8648 2.75676V5.02703H12.8108V2.75676C12.8108 2.55605 12.8906 2.36357 13.0325 2.22165C13.1744 2.07973 13.3668 2 13.5675 2V2Z" stroke="#172D3A" stroke-width="2" stroke-linecap="round" stroke-linejoin="round"/>
</svg>
