<svg width="24" height="24" viewBox="0 0 24 24" fill="none" xmlns="http://www.w3.org/2000/svg">
<path d="M14.3638 16.5454H9.81836" stroke="#4866A2" stroke-width="1.5" stroke-miterlimit="10" stroke-linecap="round" stroke-linejoin="round"/>
<path d="M12 22C17.5228 22 22 17.5228 22 12C22 6.47715 17.5228 2 12 2C6.47715 2 2 6.47715 2 12C2 17.5228 6.47715 22 12 22Z" stroke="#4866A2" stroke-width="1.5" stroke-miterlimit="10"/>
<path d="M11.9999 8.3635C12.753 8.3635 13.3635 7.75298 13.3635 6.99987C13.3635 6.24675 12.753 5.63623 11.9999 5.63623C11.2468 5.63623 10.6362 6.24675 10.6362 6.99987C10.6362 7.75298 11.2468 8.3635 11.9999 8.3635Z" fill="#4866A2"/>
<path d="M12 10.1816V16.5453" stroke="#4866A2" stroke-width="1.5" stroke-miterlimit="10" stroke-linecap="round" stroke-linejoin="round"/>
<path d="M11.9998 10.1816H10.2725" stroke="#4866A2" stroke-width="1.5" stroke-miterlimit="10" stroke-linecap="round" stroke-linejoin="round"/>
</svg>
