<svg width="32" height="32" viewBox="0 0 32 32" fill="none" xmlns="http://www.w3.org/2000/svg">
<path d="M16.27 30.54C24.1511 30.54 30.54 24.1511 30.54 16.27C30.54 8.3889 24.1511 2 16.27 2C8.38889 2 2 8.3889 2 16.27C2 24.1511 8.38889 30.54 16.27 30.54Z" stroke="#4866A2" stroke-width="1.5" stroke-miterlimit="10"/>
<path d="M15.3646 9.4832C16.1143 9.4832 16.722 8.87551 16.722 8.12588C16.722 7.37625 16.1143 6.76855 15.3646 6.76855C14.615 6.76855 14.0073 7.37625 14.0073 8.12588C14.0073 8.87551 14.615 9.4832 15.3646 9.4832Z" fill="#4866A2"/>
<path d="M16.478 12.8584V23.9432" stroke="#4866A2" stroke-width="1.5" stroke-linecap="round" stroke-linejoin="round"/>
<path d="M16.4783 12.6504H13.7637" stroke="#4866A2" stroke-width="1.5" stroke-linecap="round" stroke-linejoin="round"/>
<path d="M13.1025 24.4141H19.4367" stroke="#4866A2" stroke-width="1.5" stroke-linecap="round" stroke-linejoin="round"/>
</svg>
