<svg width="25" height="30" viewBox="0 0 25 30" fill="none" xmlns="http://www.w3.org/2000/svg">
<path d="M12.8708 12.264C15.8782 12.264 18.3162 9.82596 18.3162 6.81851C18.3162 3.81106 15.8782 1.37305 12.8708 1.37305C9.86331 1.37305 7.42529 3.81106 7.42529 6.81851C7.42529 9.82596 9.86331 12.264 12.8708 12.264Z" stroke="#4866A2" stroke-width="1.20373" stroke-miterlimit="10"/>
<path d="M17.5542 14.7687C16.0294 15.7489 14.2869 16.2934 12.4355 16.2934C10.584 16.2934 8.84136 15.7489 7.42554 14.7687C3.17808 16.5112 1 21.9567 1 25.3329V27.9467C1 28.2734 1.3267 28.6002 1.65343 28.6002H23.2174C23.5441 28.6002 23.871 28.2734 23.871 27.9467V25.1151C23.762 21.3032 21.8016 16.4023 17.5542 14.7687Z" stroke="#4866A2" stroke-width="1.20373" stroke-miterlimit="10"/>
</svg>
