<svg width="16" height="16" viewBox="0 0 16 16" fill="none" xmlns="http://www.w3.org/2000/svg">
<path d="M11.2597 9.86642L6.13381 4.74069C5.80312 4.41 5.22441 4.41 4.89372 4.74069L2.24802 7.38623C1.91733 7.71692 1.91733 8.29563 2.24802 8.62632L7.37391 13.752C7.53925 13.9174 7.78711 14.0001 8.03513 14.0001C8.28315 14.0001 8.53141 13.9174 8.69676 13.752L11.3421 11.1065C11.5901 10.7758 11.5904 10.2798 11.2597 9.86642Z" fill="#4866A2"/>
<path d="M12.1688 7.46887C12.2515 6.55947 11.921 5.56739 11.1769 4.82333C10.4329 4.07928 9.44065 3.74858 8.53125 3.83125" stroke="#4866A2" stroke-miterlimit="10" stroke-linecap="round" stroke-linejoin="round"/>
<path d="M13.9871 5.65002C14.0698 4.74062 13.739 3.74853 12.9949 3.00447C12.2508 2.26042 11.259 1.92973 10.3496 2.0124" stroke="#4866A2" stroke-miterlimit="10" stroke-linecap="round" stroke-linejoin="round"/>
</svg>
