<svg width="24" height="24" viewBox="0 0 24 24" fill="none" xmlns="http://www.w3.org/2000/svg">
<path d="M12 6C6.46154 6 2 12.3846 2 12.3846C2 12.3846 6.46154 18.7692 12 18.7692C17.5385 18.7692 22 12.3846 22 12.3846C22 12.3846 17.5385 6 12 6ZM12 16.3846C9.76923 16.3846 8.00004 14.6154 8.00004 12.3846C8.00004 10.1538 9.76923 8.38462 12 8.38462C14.2308 8.38462 16 10.1538 16 12.3846C16 14.6154 14.2308 16.3846 12 16.3846ZM12 14.6923C10.6923 14.6923 9.69231 13.6923 9.69231 12.3846C9.69231 11.0769 10.6923 10.0769 12 10.0769C13.3077 10.0769 14.3077 11.0769 14.3077 12.3846C14.3077 13.6923 13.3077 14.6923 12 14.6923Z" fill="#3738C0"/>
</svg>
