<svg width="32" height="32" viewBox="0 0 32 32" fill="none" xmlns="http://www.w3.org/2000/svg">
<path d="M26.5556 5.11108H6.33333C5.04467 5.11108 4 6.15575 4 7.44442V27.6666C4 28.9553 5.04467 30 6.33333 30H26.5556C27.8442 30 28.8889 28.9553 28.8889 27.6666V7.44442C28.8889 6.15575 27.8442 5.11108 26.5556 5.11108Z" stroke="#4866A2" stroke-linecap="round" stroke-linejoin="round"/>
<path d="M10.2222 7.44444V2" stroke="#4866A2" stroke-linecap="round" stroke-linejoin="round"/>
<path d="M22.6665 7.44444V2" stroke="#4866A2" stroke-linecap="round" stroke-linejoin="round"/>
<path d="M4 10.5557H28.8889" stroke="#4866A2" stroke-linecap="round" stroke-linejoin="round"/>
<path d="M13.8079 16.9566C14.0723 15.4011 15.2001 14.6233 16.919 14.6233C18.6379 14.6233 19.6959 15.6422 19.6959 17.1277C19.6844 17.6263 19.5099 18.1074 19.1995 18.4977C18.8892 18.8881 18.4601 19.1663 17.9771 19.29C18.5531 19.3882 19.075 19.6891 19.4487 20.1384C19.8223 20.5876 20.0229 21.1557 20.0145 21.74C20.0145 23.3733 18.7157 24.5088 16.9034 24.5088C15.0912 24.5088 13.7923 23.8244 13.4346 21.9344" stroke="#4866A2" stroke-linecap="round" stroke-linejoin="round"/>
<path d="M17.9998 19.1111H15.6665" stroke="#4866A2" stroke-linecap="round" stroke-linejoin="round"/>
</svg>
