<svg width="24" height="24" viewBox="0 0 24 24" fill="none" xmlns="http://www.w3.org/2000/svg">
<path d="M13.6745 14.8497C15.4858 14.0994 16.3459 12.0228 15.5956 10.2115C14.8453 8.40024 12.7688 7.54011 10.9575 8.29039C9.14616 9.04067 8.28596 11.1173 9.03624 12.9286C9.78652 14.7399 11.8632 15.6 13.6745 14.8497Z" stroke="#4866A2" stroke-width="1.5" stroke-miterlimit="10" stroke-linecap="round" stroke-linejoin="round"/>
<path d="M19.5403 12.0433C19.5403 11.5238 19.4538 11.0043 19.3672 10.4849L21.3586 8.92641C21.5317 8.75325 21.6183 8.4935 21.5317 8.23376L20.233 5.8961C20.0598 5.63636 19.8 5.54978 19.5403 5.63636L17.1161 6.58875C16.3369 5.89611 15.4711 5.37662 14.5187 5.0303L14.1724 2.4329C14.1724 2.17316 13.9126 2 13.6529 2H10.9689C10.7092 2 10.4494 2.17316 10.4494 2.4329L10.1031 5.0303C9.15076 5.37662 8.19838 5.8961 7.50574 6.50216L5.08145 5.54978C4.82171 5.4632 4.56193 5.54979 4.38877 5.80953L3.09007 8.14719C2.91691 8.40693 3.00355 8.66667 3.26329 8.83983L5.34124 10.4849C5.25466 11.0043 5.16801 11.5238 5.16801 12.0433C5.16801 12.5628 5.25466 13.0823 5.34124 13.5152L3.34985 15.1602C3.17669 15.3333 3.09015 15.5931 3.17673 15.8528L4.47544 18.1905C4.6486 18.4502 4.90827 18.5368 5.16801 18.4502L7.50574 17.4978C8.28496 18.1905 9.15074 18.7965 10.1897 19.0563L10.536 21.5671C10.536 21.8268 10.7958 22 11.0555 22H13.7395C13.9992 22 14.2589 21.8268 14.2589 21.5671L14.6053 19.0563C15.6442 18.71 16.5966 18.1905 17.3758 17.4978L19.7135 18.4502C19.9733 18.5368 20.2329 18.4502 20.4061 18.1905L21.7048 15.8528C21.878 15.5931 21.7914 15.3333 21.5317 15.1602L19.5403 13.6017C19.4537 13.0823 19.5403 12.5628 19.5403 12.0433Z" stroke="#4866A2" stroke-width="1.5" stroke-miterlimit="10" stroke-linecap="round" stroke-linejoin="round"/>
</svg>
