<svg width="24" height="24" viewBox="0 0 24 24" fill="none" xmlns="http://www.w3.org/2000/svg">
<path d="M16.7929 22.7071C17.1834 23.0976 17.8166 23.0976 18.2071 22.7071C18.5977 22.3166 18.5977 21.6834 18.2071 21.2929L16.7929 22.7071ZM8 12.5L7.29289 11.7929L6.58578 12.5L7.29289 13.2071L8 12.5ZM18.2071 3.70711C18.5977 3.31658 18.5977 2.68342 18.2071 2.29289C17.8166 1.90237 17.1834 1.90237 16.7929 2.29289L18.2071 3.70711ZM18.2071 21.2929L8.70711 11.7929L7.29289 13.2071L16.7929 22.7071L18.2071 21.2929ZM8.70711 13.2071L18.2071 3.70711L16.7929 2.29289L7.29289 11.7929L8.70711 13.2071Z" fill="#4866A2"/>
</svg>
