<svg width="32" height="32" viewBox="0 0 32 32" fill="none" xmlns="http://www.w3.org/2000/svg">
<path d="M3.76758 4L28.2321 28.4645" stroke="#172D3A" stroke-width="2" stroke-miterlimit="10" stroke-linecap="round"/>
<path d="M16 7.24463C8.26875 7.24463 2 16.2325 2 16.2325C2 16.2325 8.26875 25.2203 16 25.2203C23.7312 25.2203 30 16.2325 30 16.2325C30 16.2325 23.7312 7.24463 16 7.24463ZM16 21.8268C14.5163 21.8268 13.0933 21.2374 12.0442 20.1883C10.9951 19.1391 10.4058 17.7162 10.4058 16.2325C10.4058 14.7488 10.9951 13.3258 12.0442 12.2767C13.0933 11.2275 14.5163 10.6381 16 10.6381C17.4837 10.6381 18.9067 11.2275 19.9558 12.2767C21.0049 13.3258 21.5942 14.7488 21.5942 16.2325C21.5942 16.9671 21.4497 17.6946 21.1686 18.3733C20.8874 19.0521 20.4753 19.6688 19.9558 20.1883C19.4363 20.7077 18.8196 21.1198 18.1409 21.401C17.4622 21.6821 16.7347 21.8268 16 21.8268Z" fill="#172D3A"/>
</svg>
