<svg width="16" height="16" viewBox="0 0 16 16" fill="none" xmlns="http://www.w3.org/2000/svg">
<path d="M2.01295 5.07238C2.45424 7.36708 5.54326 10.4561 5.54326 10.4561C5.54326 10.4561 8.54401 13.5451 10.927 13.9864C11.633 14.1629 13.1335 12.5743 13.7513 11.8682C14.0161 11.6035 14.016 11.1622 13.6629 10.9857L11.5448 9.30874C11.2801 9.13223 10.927 9.13223 10.6623 9.30874L9.86792 10.1031C9.6914 10.2796 9.42656 10.2796 9.25005 10.1913C8.89702 9.92655 8.191 9.48527 7.30842 8.60269C6.42584 7.72012 5.98451 7.1023 5.71974 6.66101C5.63148 6.4845 5.63156 6.21973 5.80808 6.04321L6.60231 5.24889C6.86709 4.98412 6.86709 4.63109 6.60231 4.36632L4.9255 2.24812C4.66073 1.98335 4.3077 1.8951 4.04292 2.15987C3.51338 2.95419 1.83644 4.36632 2.01295 5.07238Z" stroke="#172D3A" stroke-miterlimit="10"/>
</svg>
