<svg width="16" height="16" viewBox="0 0 16 16" fill="none" xmlns="http://www.w3.org/2000/svg">
<path d="M6.35355 3.64645C6.15829 3.45118 5.84171 3.45118 5.64645 3.64645C5.45118 3.84171 5.45118 4.15829 5.64645 4.35355L6.35355 3.64645ZM10.5 8.5L10.8536 8.85355L11.2071 8.5L10.8536 8.14645L10.5 8.5ZM5.64645 12.6464C5.45118 12.8417 5.45118 13.1583 5.64645 13.3536C5.84171 13.5488 6.15829 13.5488 6.35355 13.3536L5.64645 12.6464ZM5.64645 4.35355L10.1465 8.85355L10.8536 8.14645L6.35355 3.64645L5.64645 4.35355ZM10.1465 8.14645L5.64645 12.6464L6.35355 13.3536L10.8536 8.85355L10.1465 8.14645Z" fill="#172D3A"/>
</svg>
