<svg width="32" height="32" viewBox="0 0 32 32" fill="none" xmlns="http://www.w3.org/2000/svg">
<path d="M10.7071 2.29289C10.3166 1.90237 9.68342 1.90237 9.29289 2.29289C8.90237 2.68342 8.90237 3.31658 9.29289 3.70711L10.7071 2.29289ZM22.96 15.96L23.6671 16.6671L24.3742 15.96L23.6671 15.2529L22.96 15.96ZM9.29289 28.2128C8.90237 28.6033 8.90237 29.2365 9.29289 29.627C9.68342 30.0176 10.3166 30.0176 10.7071 29.627L9.29289 28.2128ZM9.29289 3.70711L22.2529 16.6671L23.6671 15.2529L10.7071 2.29289L9.29289 3.70711ZM22.2529 15.2529L9.29289 28.2128L10.7071 29.627L23.6671 16.6671L22.2529 15.2529Z" fill="#4866A2"/>
</svg>
