<svg width="16" height="16" viewBox="0 0 16 16" fill="none" xmlns="http://www.w3.org/2000/svg">
<path d="M3.64645 10.1465C3.45118 10.3417 3.45118 10.6583 3.64645 10.8536C3.84171 11.0488 4.15829 11.0488 4.35355 10.8536L3.64645 10.1465ZM8.5 6L8.85355 5.64645L8.5 5.29289L8.14645 5.64645L8.5 6ZM12.6464 10.8536C12.8417 11.0488 13.1583 11.0488 13.3536 10.8536C13.5488 10.6583 13.5488 10.3417 13.3536 10.1465L12.6464 10.8536ZM4.35355 10.8536L8.85355 6.35355L8.14645 5.64645L3.64645 10.1465L4.35355 10.8536ZM8.14645 6.35355L12.6464 10.8536L13.3536 10.1465L8.85355 5.64645L8.14645 6.35355Z" fill="#172D3A"/>
</svg>
