<svg width="24" height="24" viewBox="0 0 24 24" fill="none" xmlns="http://www.w3.org/2000/svg">
<path d="M7.70711 2.29289C7.31658 1.90237 6.68342 1.90237 6.29289 2.29289C5.90237 2.68342 5.90237 3.31658 6.29289 3.70711L7.70711 2.29289ZM16.5 12.5L17.2071 13.2071L17.9142 12.5L17.2071 11.7929L16.5 12.5ZM6.29289 21.2929C5.90237 21.6834 5.90237 22.3166 6.29289 22.7071C6.68342 23.0976 7.31658 23.0976 7.70711 22.7071L6.29289 21.2929ZM6.29289 3.70711L15.7929 13.2071L17.2071 11.7929L7.70711 2.29289L6.29289 3.70711ZM15.7929 11.7929L6.29289 21.2929L7.70711 22.7071L17.2071 13.2071L15.7929 11.7929Z" fill="#172D3A"/>
</svg>
