<svg width="24" height="24" viewBox="0 0 24 24" fill="none" xmlns="http://www.w3.org/2000/svg">
<path d="M16.8843 17.9323L13.3712 21.4454C12.6316 22.185 11.5222 22.185 10.7826 21.4454L2.5547 13.2174C1.8151 12.4778 1.8151 11.3684 2.5547 10.6288L6.06759 7.11573C6.80718 6.37614 7.91662 6.37614 8.65622 7.11573L16.8843 15.3437C17.6239 15.9909 17.6239 17.1927 16.8843 17.9323Z" stroke="#3738C0" stroke-width="1.5" stroke-miterlimit="10" stroke-linecap="round" stroke-linejoin="round"/>
<path d="M19.3807 11.6455C19.5656 9.79648 18.9185 7.85505 17.5317 6.46831C16.145 5.08157 14.2035 4.43442 12.3545 4.61932" stroke="#3738C0" stroke-width="1.5" stroke-miterlimit="10" stroke-linecap="round" stroke-linejoin="round"/>
<path d="M21.9691 9.0571C22.154 7.20811 21.5069 5.26667 20.1201 3.87993C18.7334 2.49319 16.7919 1.84605 14.9429 2.03094" stroke="#3738C0" stroke-width="1.5" stroke-miterlimit="10" stroke-linecap="round" stroke-linejoin="round"/>
</svg>
