<svg width="24" height="24" viewBox="0 0 24 24" fill="none" xmlns="http://www.w3.org/2000/svg">
<path d="M4.08333 14.1667C5.23393 14.1667 6.16667 13.2339 6.16667 12.0833C6.16667 10.9327 5.23393 10 4.08333 10C2.93274 10 2 10.9327 2 12.0833C2 13.2339 2.93274 14.1667 4.08333 14.1667Z" stroke="#3738C0" stroke-miterlimit="10" stroke-linecap="round" stroke-linejoin="round"/>
<path d="M12.4168 14.1667C13.5674 14.1667 14.5002 13.2339 14.5002 12.0833C14.5002 10.9327 13.5674 10 12.4168 10C11.2662 10 10.3335 10.9327 10.3335 12.0833C10.3335 13.2339 11.2662 14.1667 12.4168 14.1667Z" stroke="#3738C0" stroke-miterlimit="10" stroke-linecap="round" stroke-linejoin="round"/>
<path d="M19.9168 14.1667C21.0674 14.1667 22.0002 13.2339 22.0002 12.0833C22.0002 10.9327 21.0674 10 19.9168 10C18.7662 10 17.8335 10.9327 17.8335 12.0833C17.8335 13.2339 18.7662 14.1667 19.9168 14.1667Z" stroke="#3738C0" stroke-miterlimit="10" stroke-linecap="round" stroke-linejoin="round"/>
</svg>
