<svg width="24" height="24" viewBox="0 0 24 24" fill="none" xmlns="http://www.w3.org/2000/svg">
<path d="M18.6522 22.0001H5.6087C4.13043 22.0001 3 20.8697 3 19.3914V6.34795C3 4.86969 4.13043 3.73926 5.6087 3.73926H18.6522C20.1304 3.73926 21.2609 4.86969 21.2609 6.34795V19.3914C21.2609 20.8697 20.1304 22.0001 18.6522 22.0001Z" stroke="#3738C0" stroke-width="1.5" stroke-miterlimit="10" stroke-linecap="round" stroke-linejoin="round"/>
<path d="M8.21729 5.47826V2" stroke="#3738C0" stroke-width="1.5" stroke-miterlimit="10" stroke-linecap="round" stroke-linejoin="round"/>
<path d="M16.0435 5.47826V2" stroke="#3738C0" stroke-width="1.5" stroke-miterlimit="10" stroke-linecap="round" stroke-linejoin="round"/>
<path d="M3 8.08691H21.2609" stroke="#3738C0" stroke-width="1.5" stroke-miterlimit="10" stroke-linecap="round" stroke-linejoin="round"/>
<path d="M10.4782 13.1302C10.6521 11.9998 11.5217 11.3911 12.739 11.3911C14.0434 11.3911 14.739 12.1737 14.739 13.2172C14.739 14.0868 14.1304 14.6085 13.5217 14.7824C14.3043 14.9563 14.9999 15.4781 14.9999 16.6085C14.9999 17.8259 14.0434 18.6085 12.739 18.6085C11.4347 18.6085 10.4782 18.0868 10.2173 16.6955" stroke="#3738C0" stroke-width="1.5" stroke-miterlimit="10" stroke-linecap="round" stroke-linejoin="round"/>
<path d="M13.4345 15.0435H12.5649" stroke="#3738C0" stroke-width="1.5" stroke-miterlimit="10" stroke-linecap="round" stroke-linejoin="round"/>
</svg>
