<svg width="16" height="16" viewBox="0 0 16 16" fill="none" xmlns="http://www.w3.org/2000/svg">
<path d="M13.5 3.5H3V14H13.5V3.5Z" fill="#3738C0"/>
<path d="M13.5 5.75H3V6.5H13.5V5.75Z" fill="white"/>
<path d="M9.75043 12.5H6.52539V11.375C6.52539 11.15 6.67539 11 6.90039 11C7.12539 11 7.27539 11.15 7.27539 11.375V11.75H9.00043V10.25H7.87543C7.65043 10.25 7.50043 10.1 7.50043 9.875C7.50043 9.65 7.65043 9.5 7.87543 9.5H9.00043V8H7.27539V8.375C7.27539 8.6 7.12539 8.75 6.90039 8.75C6.67539 8.75 6.52539 8.6 6.52539 8.375V7.25H9.75043V12.5Z" fill="white"/>
<path d="M6.75 3.5H6V5H6.75V3.5Z" fill="white"/>
<path d="M10.5 3.5H9.75V5H10.5V3.5Z" fill="white"/>
<path d="M6.75 2H6V3.5H6.75V2Z" fill="#3738C0"/>
<path d="M10.5 2H9.75V3.5H10.5V2Z" fill="#3738C0"/>
</svg>
