<svg width="32" height="32" viewBox="0 0 32 32" fill="none" xmlns="http://www.w3.org/2000/svg">
<path d="M15.9061 13.5192C19.0871 13.5192 21.6657 10.9406 21.6657 7.75962C21.6657 4.57867 19.0871 2 15.9061 2C12.7252 2 10.1465 4.57867 10.1465 7.75962C10.1465 10.9406 12.7252 13.5192 15.9061 13.5192Z" stroke="#3738C0" stroke-width="1.5" stroke-miterlimit="10"/>
<path d="M20.0941 15.165C18.8085 15.8628 17.3689 16.2277 15.9061 16.2265C14.4706 16.2227 13.058 15.8668 11.7921 15.1897C6.54264 16.5144 4 22.7431 4 26.6349V29.3173C4 29.4984 4.072 29.6721 4.20008 29.8002C4.32815 29.9282 4.50187 30.0002 4.68299 30.0002H27.1787C27.3598 30.0002 27.5336 29.9282 27.6616 29.8002C27.7897 29.6721 27.8613 29.4984 27.8613 29.3173V26.3223C27.8366 22.0684 25.3353 16.3087 20.0941 15.165Z" stroke="#3738C0" stroke-width="1.5" stroke-miterlimit="10"/>
</svg>
