<svg width="16" height="16" viewBox="0 0 16 16" fill="none" xmlns="http://www.w3.org/2000/svg">
<path d="M10.8304 11.1417L8.10024 13.8719C7.92961 14.0426 7.58829 14.0426 7.41766 13.8719L2.12798 8.5822C1.95734 8.41157 1.95734 8.07031 2.12798 7.89967L4.85811 5.16948C5.02875 4.99884 5.37006 4.99884 5.5407 5.16948L10.8304 10.4592C11.0863 10.6298 11.0863 10.9711 10.8304 11.1417Z" stroke="#172D3A" stroke-width="0.75" stroke-miterlimit="10" stroke-linecap="round" stroke-linejoin="round"/>
<path d="M12.1096 7.64375C12.1949 6.70525 11.8537 5.68144 11.0858 4.91358C10.318 4.14572 9.29397 3.80443 8.35547 3.88975" stroke="#172D3A" stroke-width="0.75" stroke-miterlimit="10" stroke-linecap="round" stroke-linejoin="round"/>
<path d="M13.9873 5.7668C14.0726 4.8283 13.7314 3.80447 12.9635 3.03661C12.1957 2.26875 11.1719 1.92748 10.2334 2.0128" stroke="#172D3A" stroke-width="0.75" stroke-miterlimit="10" stroke-linecap="round" stroke-linejoin="round"/>
</svg>
