<svg width="32" height="32" viewBox="0 0 32 32" fill="none" xmlns="http://www.w3.org/2000/svg">
<path d="M8.12346 9.21833L4.13233 13.2095C2.95464 14.3872 2.9547 16.2965 4.13239 17.4742L14.5259 27.8677C15.7036 29.0454 17.6129 29.0454 18.7906 27.8677L22.7817 23.8766C23.9594 22.6989 23.9596 20.7893 22.7819 19.6116L12.3884 9.21814C11.2108 8.04045 9.30115 8.04065 8.12346 9.21833Z" stroke="#4866A2" stroke-width="1.5" stroke-linecap="round" stroke-linejoin="round"/>
<path d="M26.4616 15.0881C26.5839 13.8018 26.4205 12.5043 25.9824 11.2886C25.5444 10.0729 24.8428 8.96919 23.9281 8.05646C23.0153 7.14177 21.9117 6.44027 20.6961 6.00223C19.4804 5.56419 18.1829 5.40044 16.8965 5.52272" stroke="#4866A2" stroke-width="1.5" stroke-linecap="round" stroke-linejoin="round"/>
<path d="M29.9447 11.6054C30.067 10.319 29.9032 9.02149 29.4651 7.80582C29.0271 6.59016 28.3258 5.48642 27.4111 4.5737C26.4976 3.65801 25.3926 2.95592 24.1756 2.51785C22.9586 2.07977 21.6596 1.91657 20.3721 2.03996" stroke="#4866A2" stroke-width="1.5" stroke-linecap="round" stroke-linejoin="round"/>
</svg>
