<svg width="32" height="32" viewBox="0 0 32 32" fill="none" xmlns="http://www.w3.org/2000/svg">
<path d="M6.11765 6.4707H2" stroke="#172D3A" stroke-linecap="round" stroke-linejoin="round"/>
<path d="M30 6.4707H11.0588" stroke="#172D3A" stroke-linecap="round" stroke-linejoin="round"/>
<path d="M20.9412 15.5293H2" stroke="#172D3A" stroke-linecap="round" stroke-linejoin="round"/>
<path d="M30 15.5293H25.8823" stroke="#172D3A" stroke-linecap="round" stroke-linejoin="round"/>
<path d="M12.7059 24.5881H2" stroke="#172D3A" stroke-linecap="round" stroke-linejoin="round"/>
<path d="M29.9999 24.5881H17.647" stroke="#172D3A" stroke-linecap="round" stroke-linejoin="round"/>
<path d="M23.4118 18C24.7762 18 25.8823 16.8939 25.8823 15.5294C25.8823 14.165 24.7762 13.0588 23.4118 13.0588C22.0473 13.0588 20.9412 14.165 20.9412 15.5294C20.9412 16.8939 22.0473 18 23.4118 18Z" stroke="#172D3A" stroke-linecap="round" stroke-linejoin="round"/>
<path d="M8.58826 8.94118C9.95273 8.94118 11.0589 7.83506 11.0589 6.47059C11.0589 5.10612 9.95273 4 8.58826 4C7.2238 4 6.11768 5.10612 6.11768 6.47059C6.11768 7.83506 7.2238 8.94118 8.58826 8.94118Z" stroke="#172D3A" stroke-linecap="round" stroke-linejoin="round"/>
<path d="M15.1764 27.0589C16.5409 27.0589 17.647 25.9527 17.647 24.5883C17.647 23.2238 16.5409 22.1177 15.1764 22.1177C13.8119 22.1177 12.7058 23.2238 12.7058 24.5883C12.7058 25.9527 13.8119 27.0589 15.1764 27.0589Z" stroke="#172D3A" stroke-linecap="round" stroke-linejoin="round"/>
</svg>
