<svg width="16" height="16" viewBox="0 0 16 16" fill="none" xmlns="http://www.w3.org/2000/svg">
<path d="M7.95411 9.74807C8.71297 9.74807 9.32815 9.13289 9.32815 8.37404C9.32815 7.61518 8.71297 7 7.95411 7C7.19525 7 6.58008 7.61518 6.58008 8.37404C6.58008 9.13289 7.19525 9.74807 7.95411 9.74807Z" fill="#172D3A"/>
<path d="M12.626 9.74807C13.3848 9.74807 14 9.13289 14 8.37404C14 7.61518 13.3848 7 12.626 7C11.8671 7 11.252 7.61518 11.252 8.37404C11.252 9.13289 11.8671 9.74807 12.626 9.74807Z" fill="#172D3A"/>
<path d="M3.37404 9.74807C4.13289 9.74807 4.74807 9.13289 4.74807 8.37404C4.74807 7.61518 4.13289 7 3.37404 7C2.61518 7 2 7.61518 2 8.37404C2 9.13289 2.61518 9.74807 3.37404 9.74807Z" fill="#172D3A"/>
</svg>
