<svg width="32" height="32" viewBox="0 0 32 32" fill="none" xmlns="http://www.w3.org/2000/svg">
<path d="M26.5556 5.11133H6.33333C5.04467 5.11133 4 6.156 4 7.44466V27.6669C4 28.9555 5.04467 30.0002 6.33333 30.0002H26.5556C27.8442 30.0002 28.8889 28.9555 28.8889 27.6669V7.44466C28.8889 6.156 27.8442 5.11133 26.5556 5.11133Z" stroke="#4866A2" stroke-width="1.5" stroke-linecap="round" stroke-linejoin="round"/>
<path d="M10.2222 7.44444V2" stroke="#4866A2" stroke-width="1.5" stroke-linecap="round" stroke-linejoin="round"/>
<path d="M22.6665 7.44444V2" stroke="#4866A2" stroke-width="1.5" stroke-linecap="round" stroke-linejoin="round"/>
<path d="M4 10.5557H28.8889" stroke="#4866A2" stroke-width="1.5" stroke-linecap="round" stroke-linejoin="round"/>
<path d="M13.8079 16.9569C14.0723 15.4013 15.2001 14.6235 16.919 14.6235C18.6379 14.6235 19.6959 15.6424 19.6959 17.128C19.6844 17.6265 19.5099 18.1076 19.1995 18.498C18.8892 18.8883 18.4601 19.1665 17.9771 19.2902C18.5531 19.3885 19.075 19.6894 19.4487 20.1386C19.8223 20.5879 20.0229 21.1559 20.0145 21.7402C20.0145 23.3735 18.7157 24.5091 16.9034 24.5091C15.0912 24.5091 13.7923 23.8246 13.4346 21.9346" stroke="#4866A2" stroke-width="1.5" stroke-linecap="round" stroke-linejoin="round"/>
<path d="M17.9998 19.1113H15.6665" stroke="#4866A2" stroke-width="1.5" stroke-linecap="round" stroke-linejoin="round"/>
</svg>
