<svg width="24" height="24" viewBox="0 0 24 24" fill="none" xmlns="http://www.w3.org/2000/svg">
<path d="M19.1702 21.9998H5.55319C4.10638 21.9998 3 20.8934 3 19.4466V5.82956C3 4.38275 4.10638 3.27637 5.55319 3.27637H19.1702C20.617 3.27637 21.7234 4.38275 21.7234 5.82956V19.4466C21.7234 20.8934 20.617 21.9998 19.1702 21.9998Z" fill="#3738C0"/>
<path d="M8.61719 3.10639V2" stroke="#3738C0" stroke-width="1.5" stroke-miterlimit="10" stroke-linecap="round" stroke-linejoin="round"/>
<path d="M16.2769 3.10639V2" stroke="#3738C0" stroke-width="1.5" stroke-miterlimit="10" stroke-linecap="round" stroke-linejoin="round"/>
<path d="M3.51074 7.95752H21.3831" stroke="#F6F7F7" stroke-width="1.5" stroke-miterlimit="10" stroke-linecap="round" stroke-linejoin="round"/>
<path d="M10.3193 12.8935C10.4895 11.7872 11.3405 11.1914 12.532 11.1914C13.8086 11.1914 14.4895 11.9574 14.4895 12.9786C14.4895 13.8297 13.8938 14.3403 13.298 14.5105C14.064 14.6808 14.7448 15.1914 14.7448 16.2978C14.7448 17.4893 13.8086 18.2552 12.532 18.2552C11.2554 18.2552 10.3193 17.7446 10.064 16.3829" stroke="#F6F7F7" stroke-width="1.5" stroke-miterlimit="10" stroke-linecap="round" stroke-linejoin="round"/>
<path d="M13.2981 14.5957H12.0215" stroke="#F6F7F7" stroke-width="1.5" stroke-miterlimit="10" stroke-linecap="round" stroke-linejoin="round"/>
<path d="M8.6167 4.80853V3.70215" stroke="#F6F7F7" stroke-width="1.5" stroke-miterlimit="10" stroke-linecap="round" stroke-linejoin="round"/>
<path d="M16.2764 4.80853V3.70215" stroke="#F6F7F7" stroke-width="1.5" stroke-miterlimit="10" stroke-linecap="round" stroke-linejoin="round"/>
</svg>
