<svg width="24" height="24" viewBox="0 0 24 24" fill="none" xmlns="http://www.w3.org/2000/svg">
<path d="M14.3638 16.5454H9.81836" stroke="#3738C0" stroke-miterlimit="10" stroke-linecap="round" stroke-linejoin="round"/>
<path d="M12 22C17.5228 22 22 17.5228 22 12C22 6.47715 17.5228 2 12 2C6.47715 2 2 6.47715 2 12C2 17.5228 6.47715 22 12 22Z" stroke="#3738C0" stroke-miterlimit="10"/>
<path d="M11.9999 8.36375C12.753 8.36375 13.3635 7.75323 13.3635 7.00011C13.3635 6.247 12.753 5.63647 11.9999 5.63647C11.2468 5.63647 10.6362 6.247 10.6362 7.00011C10.6362 7.75323 11.2468 8.36375 11.9999 8.36375Z" fill="#3738C0"/>
<path d="M12 10.1819V16.5455" stroke="#3738C0" stroke-miterlimit="10" stroke-linecap="round" stroke-linejoin="round"/>
<path d="M11.9998 10.1819H10.2725" stroke="#3738C0" stroke-miterlimit="10" stroke-linecap="round" stroke-linejoin="round"/>
</svg>
