<svg width="32" height="32" viewBox="0 0 32 32" fill="none" xmlns="http://www.w3.org/2000/svg">
<path d="M26.5556 5.11133H6.33333C5.04467 5.11133 4 6.156 4 7.44466V27.6669C4 28.9555 5.04467 30.0002 6.33333 30.0002H26.5556C27.8442 30.0002 28.8889 28.9555 28.8889 27.6669V7.44466C28.8889 6.156 27.8442 5.11133 26.5556 5.11133Z" stroke="#172D3A" stroke-width="1.5" stroke-linecap="round" stroke-linejoin="round"/>
<path d="M10.2222 7.44444V2" stroke="#172D3A" stroke-width="1.5" stroke-linecap="round" stroke-linejoin="round"/>
<path d="M22.6667 7.44444V2" stroke="#172D3A" stroke-width="1.5" stroke-linecap="round" stroke-linejoin="round"/>
<path d="M4 10.5557H28.8889" stroke="#172D3A" stroke-width="1.5" stroke-linecap="round" stroke-linejoin="round"/>
<path d="M13.8076 16.9569C14.0721 15.4013 15.1999 14.6235 16.9188 14.6235C18.6376 14.6235 19.6957 15.6424 19.6957 17.128C19.6841 17.6265 19.5096 18.1076 19.1993 18.498C18.889 18.8883 18.4599 19.1665 17.9768 19.2902C18.5528 19.3885 19.0748 19.6894 19.4484 20.1386C19.8221 20.5879 20.0226 21.1559 20.0143 21.7402C20.0143 23.3735 18.7154 24.5091 16.9032 24.5091C15.091 24.5091 13.7921 23.8246 13.4343 21.9346" stroke="#172D3A" stroke-width="1.5" stroke-linecap="round" stroke-linejoin="round"/>
<path d="M18.0001 19.1113H15.6667" stroke="#172D3A" stroke-width="1.5" stroke-linecap="round" stroke-linejoin="round"/>
</svg>
