<svg width="32" height="32" viewBox="0 0 32 32" fill="none" xmlns="http://www.w3.org/2000/svg">
<path d="M15.8139 13.3684C18.9532 13.3684 21.4981 10.8235 21.4981 7.68421C21.4981 4.54491 18.9532 2 15.8139 2C12.6746 2 10.1296 4.54491 10.1296 7.68421C10.1296 10.8235 12.6746 13.3684 15.8139 13.3684Z" fill="#3738C0"/>
<path d="M19.9597 15.4009C18.6858 16.0877 17.261 16.4466 15.8138 16.4454C14.3827 16.4448 12.9734 16.0945 11.7085 15.4252C6.51824 16.7288 4 22.8584 4 26.6883V29.328C4 29.5063 4.07086 29.6772 4.19689 29.8032C4.32293 29.9293 4.49389 30.0001 4.67213 30.0001H26.9556C27.1338 30.0001 27.3048 29.9293 27.4308 29.8032C27.5568 29.6772 27.6277 29.5063 27.6277 29.328V26.4049C27.6277 22.2187 25.15 16.5507 19.9597 15.4009Z" fill="#3738C0"/>
</svg>
