<svg width="32" height="32" viewBox="0 0 32 32" fill="none" xmlns="http://www.w3.org/2000/svg">
<path d="M19.1519 17.4203H19.2328L19.2301 17.4149C19.3287 17.401 19.424 17.3605 19.4937 17.2906L19.4938 17.2905L23.0574 13.6887C23.0575 13.6886 23.0576 13.6885 23.0577 13.6884C24.3807 12.4038 24.3799 10.2643 23.0582 8.94224C21.7735 7.61903 19.6338 7.61989 18.3117 8.94197L14.7092 12.5445C14.5365 12.7172 14.5365 12.979 14.7092 13.1517C14.8819 13.3244 15.1437 13.3244 15.3164 13.1517L18.9189 9.54921C19.896 8.57238 21.4739 8.57238 22.4507 9.5492C23.4275 10.5263 23.4275 12.1042 22.4507 13.081L18.8482 16.6835C18.6755 16.8562 18.6755 17.118 18.8482 17.2907C18.8895 17.3321 18.9328 17.365 18.9831 17.3873C19.0336 17.4097 19.0887 17.4203 19.1519 17.4203Z" fill="#172D3A" stroke="#172D3A" stroke-width="0.1"/>
<path d="M11.2958 24.0504H11.4151L11.4132 24.0485C12.2973 24.0203 13.0726 23.6739 13.6689 23.0776L17.2714 19.4751C17.4441 19.3024 17.4441 19.0405 17.2714 18.8678C17.0987 18.6951 16.8369 18.6951 16.6642 18.8678L13.0617 22.4704L13.0617 22.4703L13.0603 22.4718C12.6107 22.9588 11.9726 23.2221 11.2958 23.2221C10.62 23.2221 10.0195 22.9599 9.52997 22.4704L9.53 22.4703L9.52853 22.469C9.04148 22.0193 8.77821 21.3812 8.77821 20.7045C8.77821 20.0286 9.04043 19.4282 9.52997 18.9386L13.1325 15.3361C13.3052 15.1634 13.3052 14.9016 13.1325 14.7289C12.9598 14.5562 12.698 14.5562 12.5252 14.7289L8.92274 18.3314C8.29992 18.9542 7.95 19.8101 7.95 20.7045C7.95 21.5989 8.29992 22.4548 8.92274 23.0776C9.54557 23.7004 10.4015 24.0504 11.2958 24.0504Z" fill="#172D3A" stroke="#172D3A" stroke-width="0.1"/>
<path d="M11.7399 20.4149C11.7903 20.4373 11.8452 20.4479 11.9084 20.4479H11.9087C11.972 20.4479 12.0269 20.4373 12.0773 20.4149C12.1276 20.3925 12.1708 20.3596 12.2121 20.3183L20.0685 12.4619C20.2412 12.2892 20.2412 12.0274 20.0685 11.8547C19.8958 11.682 19.634 11.682 19.4613 11.8547L11.6049 19.7111C11.4322 19.8838 11.4322 20.1456 11.6049 20.3183C11.6462 20.3596 11.6896 20.3926 11.7399 20.4149Z" fill="#172D3A" stroke="#172D3A" stroke-width="0.1"/>
</svg>
