<svg width="16" height="16" viewBox="0 0 16 16" fill="none" xmlns="http://www.w3.org/2000/svg">
<path d="M8.44531 9.70741C9.46238 9.28612 9.94535 8.1201 9.52406 7.10304C9.10276 6.08597 7.93675 5.603 6.91968 6.0243C5.90262 6.44559 5.41965 7.6116 5.84094 8.62867C6.26223 9.64573 7.42825 10.1287 8.44531 9.70741Z" stroke="#172D3A" stroke-miterlimit="10" stroke-linecap="round" stroke-linejoin="round"/>
<path d="M12.046 7.9C12.046 7.58108 12.0459 7.26217 11.9662 6.94325L13.4014 5.82702L12.2852 3.99325L10.6109 4.71081C10.1325 4.31216 9.6541 3.99324 9.01626 3.83378L8.77703 2H6.62436L6.38514 3.83378C5.82703 3.99324 5.26892 4.31216 4.79054 4.71081L3.03653 3.99325L2 5.82702L3.43517 6.94325C3.35544 7.26217 3.35546 7.58108 3.35546 7.9C3.35546 8.21892 3.35544 8.53785 3.43517 8.77704L2 9.89325L3.11624 11.727L4.79054 11.0892C5.26892 11.4878 5.82703 11.8068 6.38514 12.0459L6.62436 13.8H8.77703L9.01626 12.0459C9.6541 11.8865 10.2122 11.4878 10.6906 11.0892L12.3649 11.727L13.4014 9.89325L11.9662 8.77704C11.9662 8.53785 12.046 8.21892 12.046 7.9Z" stroke="#172D3A" stroke-miterlimit="10" stroke-linecap="round" stroke-linejoin="round"/>
</svg>
