<svg width="24" height="24" viewBox="0 0 24 24" fill="none" xmlns="http://www.w3.org/2000/svg">
<path d="M12.4002 10.16C14.6535 10.16 16.4803 8.33332 16.4803 6.08C16.4803 3.82668 14.6535 2 12.4002 2C10.1469 2 8.32031 3.82668 8.32031 6.08C8.32031 8.33332 10.1469 10.16 12.4002 10.16Z" fill="#3738C0"/>
<path d="M16.24 11.8398C15.12 12.5598 13.8401 12.9598 12.4801 12.9598C11.1201 12.9598 9.84012 12.5598 8.72012 11.8398C5.52012 13.1198 4 17.1198 4 19.5998V21.5198C4 21.7598 4.24008 21.9998 4.48008 21.9998H20.4C20.64 21.9998 20.8801 21.7598 20.8801 21.5198V19.4398C20.8801 16.6398 19.36 13.0398 16.24 11.8398Z" fill="#3738C0"/>
</svg>
