<svg width="16" height="16" viewBox="0 0 16 16" fill="none" xmlns="http://www.w3.org/2000/svg">
<path d="M7.95416 9.74817C8.71305 9.74817 9.32825 9.13297 9.32825 8.37409C9.32825 7.6152 8.71305 7 7.95416 7C7.19528 7 6.58008 7.6152 6.58008 8.37409C6.58008 9.13297 7.19528 9.74817 7.95416 9.74817Z" fill="#4866A2"/>
<path d="M12.626 9.74817C13.3849 9.74817 14.0001 9.13297 14.0001 8.37409C14.0001 7.6152 13.3849 7 12.626 7C11.8672 7 11.252 7.6152 11.252 8.37409C11.252 9.13297 11.8672 9.74817 12.626 9.74817Z" fill="#4866A2"/>
<path d="M3.37409 9.74817C4.13297 9.74817 4.74817 9.13297 4.74817 8.37409C4.74817 7.6152 4.13297 7 3.37409 7C2.6152 7 2 7.6152 2 8.37409C2 9.13297 2.6152 9.74817 3.37409 9.74817Z" fill="#4866A2"/>
</svg>
