<svg width="32" height="32" viewBox="0 0 32 32" fill="none" xmlns="http://www.w3.org/2000/svg">
<path d="M2.02807 8.18895C3.16094 13.8533 10.7234 21.2766 10.7234 21.2766C10.7234 21.2766 18.1468 28.8391 23.8112 29.9719C25.5105 30.3098 28.0046 27.5174 29.5648 25.9075C29.7133 25.7554 29.8285 25.574 29.903 25.3749C29.9775 25.1758 30.0098 24.9633 29.9976 24.7511C29.9855 24.5389 29.9292 24.3315 29.8324 24.1422C29.7357 23.9529 29.6006 23.7859 29.4357 23.6517L24.2981 19.4581C24.0035 19.2178 23.6303 19.0951 23.2505 19.1134C22.8708 19.1318 22.5112 19.2899 22.241 19.5574L20.2535 21.5449C20.0588 21.7371 19.8056 21.859 19.5339 21.8914C19.2622 21.9238 18.9874 21.8648 18.7529 21.7238C17.0621 20.6297 15.5018 19.3461 14.1023 17.8979C12.6541 16.4983 11.3704 14.938 10.2762 13.2471C10.1352 13.0127 10.0762 12.7379 10.1086 12.4662C10.141 12.1945 10.2629 11.9413 10.455 11.7466L12.4425 9.75907C12.7101 9.48891 12.8682 9.12935 12.8865 8.74959C12.9049 8.36983 12.7822 7.9967 12.542 7.70201L8.34842 2.56433C8.21423 2.39946 8.04715 2.26435 7.85785 2.16762C7.66856 2.07089 7.46112 2.01466 7.24889 2.0025C7.03666 1.99035 6.82423 2.02254 6.62513 2.09703C6.42603 2.17152 6.24472 2.28667 6.09259 2.43514C4.48272 3.99533 1.6902 6.48964 2.02807 8.18895Z" fill="#4866A2"/>
</svg>
