<svg width="32" height="32" viewBox="0 0 32 32" fill="none" xmlns="http://www.w3.org/2000/svg">
<path d="M6.11765 6.4707H2" stroke="#4866A2" stroke-linecap="round" stroke-linejoin="round"/>
<path d="M29.9998 6.4707H11.0586" stroke="#4866A2" stroke-linecap="round" stroke-linejoin="round"/>
<path d="M20.9412 15.5293H2" stroke="#4866A2" stroke-linecap="round" stroke-linejoin="round"/>
<path d="M30 15.5293H25.8823" stroke="#4866A2" stroke-linecap="round" stroke-linejoin="round"/>
<path d="M12.7059 24.5881H2" stroke="#4866A2" stroke-linecap="round" stroke-linejoin="round"/>
<path d="M29.9999 24.5881H17.647" stroke="#4866A2" stroke-linecap="round" stroke-linejoin="round"/>
<path d="M23.412 18C24.7765 18 25.8826 16.8939 25.8826 15.5294C25.8826 14.165 24.7765 13.0588 23.412 13.0588C22.0475 13.0588 20.9414 14.165 20.9414 15.5294C20.9414 16.8939 22.0475 18 23.412 18Z" stroke="#4866A2" stroke-linecap="round" stroke-linejoin="round"/>
<path d="M8.58826 8.94118C9.95273 8.94118 11.0589 7.83506 11.0589 6.47059C11.0589 5.10612 9.95273 4 8.58826 4C7.2238 4 6.11768 5.10612 6.11768 6.47059C6.11768 7.83506 7.2238 8.94118 8.58826 8.94118Z" stroke="#4866A2" stroke-linecap="round" stroke-linejoin="round"/>
<path d="M15.1766 27.0589C16.5411 27.0589 17.6472 25.9527 17.6472 24.5883C17.6472 23.2238 16.5411 22.1177 15.1766 22.1177C13.8122 22.1177 12.7061 23.2238 12.7061 24.5883C12.7061 25.9527 13.8122 27.0589 15.1766 27.0589Z" stroke="#4866A2" stroke-linecap="round" stroke-linejoin="round"/>
</svg>
