<svg width="32" height="32" viewBox="0 0 32 32" fill="none" xmlns="http://www.w3.org/2000/svg">
<path d="M3.46967 22.4297C3.17678 22.7226 3.17678 23.1974 3.46967 23.4903C3.76256 23.7832 4.23744 23.7832 4.53033 23.4903L3.46967 22.4297ZM16.96 10L17.4903 9.46967L16.96 8.93934L16.4296 9.46967L16.96 10ZM29.3896 23.4903C29.6825 23.7832 30.1574 23.7832 30.4503 23.4903C30.7431 23.1974 30.7431 22.7226 30.4503 22.4297L29.3896 23.4903ZM4.53033 23.4903L17.4903 10.5303L16.4296 9.46967L3.46967 22.4297L4.53033 23.4903ZM16.4296 10.5303L29.3896 23.4903L30.4503 22.4297L17.4903 9.46967L16.4296 10.5303Z" fill="#172D3A"/>
</svg>
