<svg width="32" height="32" viewBox="0 0 32 32" fill="none" xmlns="http://www.w3.org/2000/svg">
<path d="M26.1793 18.1723C26.3333 17.4645 26.4106 16.7421 26.4099 16.0177C26.4086 15.2691 26.3254 14.5228 26.1616 13.7923L28.9899 11.558C29.1316 11.4459 29.2283 11.2867 29.2624 11.1093C29.2966 10.932 29.266 10.7482 29.1761 10.5915L27.3143 7.36418C27.2249 7.21773 27.0888 7.10569 26.9279 7.04616C26.767 6.98663 26.5908 6.9831 26.4276 7.03612L23.0406 8.38381C21.9708 7.42347 20.711 6.69852 19.3432 6.25588L18.7847 2.64727C18.7609 2.46709 18.6721 2.30183 18.5349 2.18262C18.3977 2.0634 18.2216 1.99846 18.0399 2.00003H14.316C14.1348 2.00034 13.9597 2.06595 13.8229 2.18482C13.6861 2.30369 13.597 2.46787 13.5714 2.64727L13.0305 6.29135C11.6686 6.73117 10.4149 7.45324 9.351 8.41041L5.90186 7.04499C5.73419 6.97779 5.54803 6.97305 5.37716 7.03164C5.20628 7.09022 5.06202 7.20823 4.97085 7.36418L3.11792 10.6004C3.02798 10.7571 2.99716 10.9408 3.03134 11.1182C3.06551 11.2956 3.16237 11.4548 3.30408 11.5668L6.1679 13.8278C6.00412 14.5583 5.92084 15.3046 5.91961 16.0532C5.91985 16.7498 5.98813 17.4447 6.12352 18.1279L3.28633 20.38C3.14462 20.492 3.04776 20.6512 3.01359 20.8286C2.97941 21.006 3.01023 21.1898 3.10017 21.3464L4.97085 24.5738C5.06067 24.7311 5.20471 24.8503 5.37607 24.9091C5.54744 24.9678 5.73441 24.9621 5.90186 24.893L9.21788 23.5719C10.3003 24.5859 11.593 25.3487 13.0038 25.8062L13.5181 29.3528C13.5457 29.5329 13.6368 29.6972 13.7751 29.816C13.9133 29.9347 14.0894 30 14.2717 30H17.9957C18.1764 29.9979 18.3505 29.9316 18.4869 29.8131C18.6233 29.6945 18.713 29.5314 18.7403 29.3528L19.2458 25.886C20.6756 25.4341 21.9891 24.6745 23.0939 23.6606L26.3832 24.9639C26.5509 25.0311 26.7371 25.0358 26.908 24.9773C27.0788 24.9187 27.2231 24.8007 27.3143 24.6447L29.1761 21.4085C29.266 21.2518 29.2966 21.0681 29.2624 20.8907C29.2283 20.7133 29.1316 20.5541 28.9899 20.4421L26.1793 18.1723ZM16.1248 21.0272C14.7962 21.0272 13.5221 20.4995 12.5826 19.56C11.6431 18.6205 11.1154 17.3463 11.1154 16.0177C11.1154 15.3603 11.2449 14.7093 11.4968 14.102C11.7487 13.4948 12.1177 12.9431 12.583 12.4786C13.0483 12.0142 13.6007 11.646 14.2085 11.3952C14.8162 11.1444 15.4674 11.016 16.1248 11.0171C16.7822 11.016 17.4334 11.1444 18.0412 11.3952C18.6489 11.646 19.2013 12.0142 19.6666 12.4786C20.1319 12.9431 20.5009 13.4948 20.7528 14.102C21.0047 14.7093 21.1342 15.3603 21.1342 16.0177C21.1342 17.3463 20.6065 18.6205 19.667 19.56C18.7276 20.4995 17.4534 21.0272 16.1248 21.0272Z" fill="#4866A2"/>
</svg>
