<svg width="24" height="24" viewBox="0 0 24 24" fill="none" xmlns="http://www.w3.org/2000/svg">
<path d="M2.46967 15.9697C2.17678 16.2626 2.17678 16.7375 2.46967 17.0304C2.76256 17.3233 3.23744 17.3233 3.53033 17.0304L2.46967 15.9697ZM12.5 7L13.0303 6.46967L12.5 5.93934L11.9697 6.46967L12.5 7ZM21.4697 17.0304C21.7626 17.3233 22.2374 17.3233 22.5303 17.0304C22.8232 16.7375 22.8232 16.2626 22.5303 15.9697L21.4697 17.0304ZM3.53033 17.0304L13.0303 7.53033L11.9697 6.46967L2.46967 15.9697L3.53033 17.0304ZM11.9697 7.53033L21.4697 17.0304L22.5303 15.9697L13.0303 6.46967L11.9697 7.53033Z" fill="#4866A2"/>
</svg>
