<svg width="24" height="24" viewBox="0 0 24 24" fill="none" xmlns="http://www.w3.org/2000/svg">
<path d="M12 22C17.5228 22 22 17.5228 22 12C22 6.47715 17.5228 2 12 2C6.47715 2 2 6.47715 2 12C2 17.5228 6.47715 22 12 22Z" fill="#172D3A"/>
<path d="M14.2609 16.3477H9.91309" stroke="white" stroke-width="1.5" stroke-miterlimit="10" stroke-linecap="round" stroke-linejoin="round"/>
<path d="M11.8262 7.82621C12.4024 7.82621 12.8696 7.35903 12.8696 6.78273C12.8696 6.20644 12.4024 5.73926 11.8262 5.73926C11.2499 5.73926 10.7827 6.20644 10.7827 6.78273C10.7827 7.35903 11.2499 7.82621 11.8262 7.82621Z" fill="white"/>
<path d="M12 10.2607V16.3477" stroke="white" stroke-width="1.5" stroke-miterlimit="10" stroke-linecap="round" stroke-linejoin="round"/>
<path d="M12 10.2607H10.7827" stroke="white" stroke-width="1.5" stroke-miterlimit="10" stroke-linecap="round" stroke-linejoin="round"/>
</svg>
