<svg width="16" height="16" viewBox="0 0 16 16" fill="none" xmlns="http://www.w3.org/2000/svg">
<path d="M8 2C4.7 2 2 4.7 2 8C2 11.3 4.7 14 8 14C11.3 14 14 11.3 14 8C14 4.7 11.375 2 8 2ZM10.6997 10.625C10.6247 10.7 10.4747 10.775 10.3247 10.775C10.1747 10.775 10.0247 10.7 9.94971 10.625L8.07471 8.75L6.19971 10.625C6.12471 10.7 5.97471 10.775 5.82471 10.775C5.67471 10.775 5.52471 10.7 5.44971 10.625C5.22471 10.4 5.22471 10.025 5.44971 9.8L7.32471 7.925L5.44971 6.05C5.22471 5.825 5.22471 5.45 5.44971 5.225C5.67471 5 6.04978 5 6.27478 5.225L8.14978 7.1L10.0248 5.225C10.2498 5 10.6249 5 10.8499 5.225C11.0749 5.45 11.0749 5.825 10.8499 6.05L8.97485 7.925L10.8499 9.8C10.9249 10.1 10.9247 10.4 10.6997 10.625Z" fill="#4866A2"/>
</svg>
