<svg width="24" height="24" viewBox="0 0 24 24" fill="none" xmlns="http://www.w3.org/2000/svg">
<path d="M19.367 13.6017C19.4536 13.0823 19.5404 12.5628 19.5404 12.0433C19.5404 11.5238 19.4536 11.0043 19.367 10.4848L21.3582 8.92641C21.5314 8.75325 21.6181 8.4935 21.5316 8.23376L20.2328 5.8961C20.0597 5.63636 19.8001 5.54978 19.5404 5.63636L17.1159 6.58874C16.3367 5.8961 15.4709 5.37662 14.5185 5.0303L14.1722 2.4329C14.1722 2.17316 13.9124 2 13.6527 2H10.9686C10.7089 2 10.4495 2.17316 10.4495 2.4329L10.1028 5.0303C9.15043 5.37662 8.19805 5.8961 7.50541 6.50216L5.08133 5.54978C4.82159 5.4632 4.56202 5.54979 4.38886 5.80953L3.09016 8.14719C2.917 8.40693 3.00333 8.66667 3.26307 8.83983L5.34091 10.4848C5.25433 11.0043 5.168 11.5238 5.168 12.0433C5.168 12.5628 5.25433 13.0822 5.34091 13.5151L3.34973 15.1602C3.17657 15.3333 3.08982 15.5931 3.1764 15.8528L4.4751 18.1905C4.64826 18.4502 4.90826 18.5368 5.168 18.4502L7.50541 17.4978C8.28463 18.1905 9.15051 18.7965 10.1895 19.0563L10.5357 21.5671C10.5357 21.8268 10.7955 22 11.0553 22H13.7393C13.9991 22 14.2589 21.8268 14.2589 21.5671L14.6051 19.0563C15.6441 18.71 16.5967 18.1905 17.3759 17.4978L19.7133 18.4502C19.973 18.5368 20.233 18.4502 20.4062 18.1905L21.7049 15.8528C21.878 15.5931 21.7913 15.3333 21.5316 15.1602L19.367 13.6017ZM12.2673 15.6797C10.276 15.6797 8.71787 14.1212 8.71787 12.1299C8.71787 10.1385 10.276 8.58009 12.2673 8.58009C14.2587 8.58009 15.8172 10.1385 15.8172 12.1299C15.8172 14.1212 14.1721 15.6797 12.2673 15.6797Z" fill="#172D3A"/>
</svg>
