<svg width="32" height="32" viewBox="0 0 32 32" fill="none" xmlns="http://www.w3.org/2000/svg">
<path d="M10.5303 2.46967C10.2374 2.17678 9.76256 2.17678 9.46967 2.46967C9.17678 2.76256 9.17678 3.23744 9.46967 3.53033L10.5303 2.46967ZM22.96 15.96L23.4903 16.4903L24.0207 15.96L23.4903 15.4296L22.96 15.96ZM9.46967 28.3896C9.17678 28.6825 9.17678 29.1574 9.46967 29.4503C9.76256 29.7431 10.2374 29.7431 10.5303 29.4503L9.46967 28.3896ZM9.46967 3.53033L22.4297 16.4903L23.4903 15.4296L10.5303 2.46967L9.46967 3.53033ZM22.4297 15.4296L9.46967 28.3896L10.5303 29.4503L23.4903 16.4903L22.4297 15.4296Z" fill="#3738C0"/>
</svg>
