<svg width="24" height="24" viewBox="0 0 24 24" fill="none" xmlns="http://www.w3.org/2000/svg">
<path d="M16.9697 22.5303C17.2626 22.8232 17.7375 22.8232 18.0304 22.5303C18.3233 22.2374 18.3233 21.7626 18.0304 21.4697L16.9697 22.5303ZM8 12.5L7.46967 11.9697L6.93934 12.5L7.46967 13.0303L8 12.5ZM18.0304 3.53033C18.3233 3.23744 18.3233 2.76256 18.0304 2.46967C17.7375 2.17678 17.2626 2.17678 16.9697 2.46967L18.0304 3.53033ZM18.0304 21.4697L8.53033 11.9697L7.46967 13.0303L16.9697 22.5303L18.0304 21.4697ZM8.53033 13.0303L18.0304 3.53033L16.9697 2.46967L7.46967 11.9697L8.53033 13.0303Z" fill="#4866A2"/>
</svg>
