<svg width="16" height="17" viewBox="0 0 16 17" fill="none" xmlns="http://www.w3.org/2000/svg">
<path d="M13.625 4.5H8.52515L7.85022 3.225C7.77522 3.075 7.62529 3 7.55029 3H2.375C2.15 3 2 3.15 2 3.375V13.125C2 13.35 2.15 13.5 2.375 13.5H13.625C13.85 13.5 14 13.35 14 13.125V4.875C14 4.65 13.775 4.5 13.625 4.5Z" fill="#4866A2"/>
<path d="M7.92549 12.75L5.3752 10.2C5.2252 10.05 5.2252 9.825 5.3752 9.675C5.5252 9.525 5.75034 9.525 5.90034 9.675L7.92549 11.7L9.95027 9.675C10.1003 9.525 10.3254 9.525 10.4754 9.675C10.6254 9.825 10.6254 10.05 10.4754 10.2L7.92549 12.75Z" fill="white"/>
<path d="M7.92542 11.8498C7.62542 11.8498 7.3252 11.6998 7.3252 11.4748V7.4248C7.3252 7.1998 7.55042 7.0498 7.92542 7.0498C8.30042 7.0498 8.52527 7.1998 8.52527 7.4248V11.4748C8.52527 11.6998 8.30042 11.8498 7.92542 11.8498Z" fill="white"/>
</svg>
