<svg width="17" height="19" viewBox="0 0 17 19" fill="none" xmlns="http://www.w3.org/2000/svg">
<path fill-rule="evenodd" clip-rule="evenodd" d="M4.11954 0.0434865C3.72923 -0.0951907 3.3004 0.108797 3.16172 0.499107L1.69209 4.6354C1.62503 4.82415 1.63626 5.03188 1.72327 5.21229C1.81028 5.39271 1.96584 5.53083 2.1553 5.59587L6.12567 6.95883C6.51744 7.09332 6.94406 6.88475 7.07855 6.49298C7.21304 6.1012 7.00447 5.67459 6.61269 5.5401L3.35933 4.42327L4.57516 1.0013C4.71383 0.610992 4.50985 0.182164 4.11954 0.0434865Z" fill="#323E48"/>
<path fill-rule="evenodd" clip-rule="evenodd" d="M8.03123 3.85474C9.4192 3.83661 10.772 4.29154 11.867 5.14467C12.9619 5.9978 13.7339 7.19828 14.0557 8.54856C14.3775 9.89883 14.23 11.3184 13.6375 12.5737C13.045 13.829 12.0429 14.8452 10.7959 15.4551C9.54896 16.0649 8.13156 16.2321 6.77695 15.929C5.42234 15.626 4.21124 14.8708 3.34299 13.7878C2.47474 12.7048 2.00108 11.3584 1.99994 9.97034C1.99948 9.41806 1.5514 8.97071 0.999116 8.97116C0.446832 8.97162 -0.000514984 9.4197 -6.29425e-05 9.97198C0.00144958 11.8144 0.630136 13.6013 1.78254 15.0388C2.93493 16.4763 4.54239 17.4786 6.34033 17.8808C8.13827 18.283 10.0196 18.0611 11.6746 17.2517C13.3296 16.4423 14.6598 15.0935 15.4462 13.4274C16.2326 11.7613 16.4283 9.87707 16.0012 8.08489C15.574 6.29271 14.5495 4.69934 13.0962 3.567C11.6429 2.43467 9.84732 1.83085 8.00511 1.85491C6.16289 1.87897 4.38375 2.52948 2.9605 3.69939C2.53385 4.05009 2.47228 4.68026 2.82298 5.1069C3.17368 5.53355 3.80385 5.59512 4.23049 5.24442C5.30281 4.36298 6.64325 3.87287 8.03123 3.85474Z" fill="#323E48"/>
</svg>
