<svg width="16" height="16" viewBox="0 0 16 16" fill="none" xmlns="http://www.w3.org/2000/svg">
<path d="M10.1465 13.3536C10.3417 13.5488 10.6583 13.5488 10.8536 13.3536C11.0488 13.1583 11.0488 12.8417 10.8536 12.6464L10.1465 13.3536ZM6 8.5L5.64645 8.14645L5.29289 8.5L5.64645 8.85355L6 8.5ZM10.8536 4.35355C11.0488 4.15829 11.0488 3.84171 10.8536 3.64645C10.6583 3.45118 10.3417 3.45118 10.1465 3.64645L10.8536 4.35355ZM10.8536 12.6464L6.35355 8.14645L5.64645 8.85355L10.1465 13.3536L10.8536 12.6464ZM6.35355 8.85355L10.8536 4.35355L10.1465 3.64645L5.64645 8.14645L6.35355 8.85355Z" fill="#172D3A"/>
</svg>
