<svg width="24" height="24" viewBox="0 0 24 24" fill="none" xmlns="http://www.w3.org/2000/svg">
<path d="M2.29289 15.7929C1.90237 16.1834 1.90237 16.8166 2.29289 17.2071C2.68342 17.5977 3.31658 17.5977 3.70711 17.2071L2.29289 15.7929ZM12.5 7L13.2071 6.29289L12.5 5.58578L11.7929 6.29289L12.5 7ZM21.2929 17.2071C21.6834 17.5977 22.3166 17.5977 22.7071 17.2071C23.0976 16.8166 23.0976 16.1834 22.7071 15.7929L21.2929 17.2071ZM3.70711 17.2071L13.2071 7.70711L11.7929 6.29289L2.29289 15.7929L3.70711 17.2071ZM11.7929 7.70711L21.2929 17.2071L22.7071 15.7929L13.2071 6.29289L11.7929 7.70711Z" fill="#3738C0"/>
</svg>
