<svg width="16" height="16" viewBox="0 0 16 16" fill="none" xmlns="http://www.w3.org/2000/svg">
<path d="M12.2801 3.6H11.8801H10.2801V2.4C10.2801 2.16 10.1201 2 9.88008 2H5.88008C5.64008 2 5.48008 2.16 5.48008 2.4V3.6H3.88008H3.48008C3.24008 3.6 3.08008 3.76 3.08008 4C3.08008 4.24 3.24008 4.4 3.48008 4.4H3.88008V14H11.8801V4.4H12.2801C12.5201 4.4 12.6801 4.24 12.6801 4C12.6801 3.76 12.4401 3.6 12.2801 3.6ZM6.2 2.8H9.4V3.6H6.2V2.8ZM7.24004 11.6H6.04004V6.8H7.24004V11.6ZM9.64004 11.6H8.44004V6.8H9.64004V11.6Z" fill="#4866A2"/>
<path d="M11.7998 4.3999H3.7998V5.1999H11.7998V4.3999Z" fill="#4866A2"/>
<path d="M12.6 4.3999H3V5.1999H12.6V4.3999Z" fill="#4866A2"/>
</svg>
