<svg width="32" height="32" viewBox="0 0 32 32" fill="none" xmlns="http://www.w3.org/2000/svg">
<path d="M15.5836 2C13.3071 2 11.1238 2.90434 9.51406 4.51408C7.90432 6.12382 7 8.30709 7 10.5836C7.00296 11.6491 7.20527 12.7047 7.59663 13.6957L15.5836 30L23.5704 13.6957C23.9589 12.7041 24.1582 11.6486 24.158 10.5836C24.1592 9.45682 23.9383 8.34085 23.5079 7.2995C23.0775 6.25814 22.4462 5.31182 21.6499 4.51464C20.8535 3.71745 19.9079 3.08504 18.867 2.65357C17.8261 2.22209 16.7104 2 15.5836 2ZM15.5836 14.6689C14.4993 14.6689 13.4592 14.2387 12.6916 13.4729C11.9241 12.707 11.4915 11.6679 11.4891 10.5836C11.4891 9.4977 11.9205 8.45626 12.6884 7.68841C13.4563 6.92056 14.4977 6.48918 15.5836 6.48918C16.6695 6.48918 17.7109 6.92056 18.4788 7.68841C19.2466 8.45626 19.678 9.4977 19.678 10.5836C19.6683 11.6631 19.2327 12.6952 18.4659 13.4551C17.6991 14.215 16.6632 14.6414 15.5836 14.6413V14.6689Z" fill="#172D3A"/>
</svg>
