<svg width="24" height="24" viewBox="0 0 24 24" fill="none" xmlns="http://www.w3.org/2000/svg">
<path d="M7.53033 2.46967C7.23744 2.17678 6.76256 2.17678 6.46967 2.46967C6.17678 2.76256 6.17678 3.23744 6.46967 3.53033L7.53033 2.46967ZM16.5 12.5L17.0304 13.0303L17.5607 12.5L17.0304 11.9697L16.5 12.5ZM6.46967 21.4697C6.17678 21.7626 6.17678 22.2374 6.46967 22.5303C6.76256 22.8232 7.23744 22.8232 7.53033 22.5303L6.46967 21.4697ZM6.46967 3.53033L15.9697 13.0303L17.0304 11.9697L7.53033 2.46967L6.46967 3.53033ZM15.9697 11.9697L6.46967 21.4697L7.53033 22.5303L17.0304 13.0303L15.9697 11.9697Z" fill="#4866A2"/>
</svg>
