<svg width="32" height="32" viewBox="0 0 32 32" fill="none" xmlns="http://www.w3.org/2000/svg">
<path d="M15.6661 14.88C17.9476 14.88 19.7972 13.0304 19.7972 10.7488C19.7972 8.46725 17.9476 6.61768 15.6661 6.61768C13.3845 6.61768 11.5349 8.46725 11.5349 10.7488C11.5349 13.0304 13.3845 14.88 15.6661 14.88Z" stroke="#172D3A" stroke-width="1.5" stroke-linecap="round" stroke-linejoin="round"/>
<path d="M7.59663 13.6957C7.20527 12.7047 7.00296 11.6491 7 10.5836C7 8.30709 7.90432 6.12382 9.51406 4.51408C11.1238 2.90434 13.307 2 15.5835 2C16.7103 2 17.8261 2.22209 18.867 2.65357C19.9079 3.08505 20.8534 3.71746 21.6497 4.51464C22.4461 5.31182 23.0776 6.25814 23.508 7.2995C23.9384 8.34085 24.1592 9.45682 24.158 10.5836C24.1582 11.6486 23.959 12.7041 23.5705 13.6957L15.5835 30L7.59663 13.6957Z" stroke="#172D3A" stroke-width="1.5" stroke-linecap="round" stroke-linejoin="round"/>
</svg>
