<svg width="32" height="32" viewBox="0 0 32 32" fill="none" xmlns="http://www.w3.org/2000/svg">
<path d="M22.4297 29.4503C22.7226 29.7431 23.1974 29.7431 23.4903 29.4503C23.7832 29.1574 23.7832 28.6825 23.4903 28.3896L22.4297 29.4503ZM10 15.96L9.46967 15.4296L8.93934 15.96L9.46967 16.4903L10 15.96ZM23.4903 3.53033C23.7832 3.23744 23.7832 2.76256 23.4903 2.46967C23.1974 2.17678 22.7226 2.17678 22.4297 2.46967L23.4903 3.53033ZM23.4903 28.3896L10.5303 15.4296L9.46967 16.4903L22.4297 29.4503L23.4903 28.3896ZM10.5303 16.4903L23.4903 3.53033L22.4297 2.46967L9.46967 15.4296L10.5303 16.4903Z" fill="#3738C0"/>
</svg>
