<svg width="16" height="16" viewBox="0 0 16 16" fill="none" xmlns="http://www.w3.org/2000/svg">
<path d="M9.96968 13.5303C10.2626 13.8232 10.7375 13.8232 11.0303 13.5303C11.3232 13.2374 11.3232 12.7626 11.0303 12.4697L9.96968 13.5303ZM6 8.5L5.46967 7.96967L4.93934 8.5L5.46967 9.03033L6 8.5ZM11.0303 4.53033C11.3232 4.23744 11.3232 3.76256 11.0303 3.46967C10.7375 3.17678 10.2626 3.17678 9.96968 3.46967L11.0303 4.53033ZM11.0303 12.4697L6.53033 7.96967L5.46967 9.03033L9.96968 13.5303L11.0303 12.4697ZM6.53033 9.03033L11.0303 4.53033L9.96968 3.46967L5.46967 7.96967L6.53033 9.03033Z" fill="#3738C0"/>
</svg>
