<svg width="16" height="16" viewBox="0 0 16 16" fill="none" xmlns="http://www.w3.org/2000/svg">
<path d="M12.2159 8C12.2159 7.67568 12.2162 7.35136 12.1351 7.02703L13.5944 5.89189L12.4594 4.02703L10.7566 4.75676C10.2701 4.35135 9.78363 4.02702 9.13498 3.86486L8.89189 2H6.70255L6.45946 3.86486C5.89189 4.02702 5.32433 4.35135 4.83784 4.75676L3.0539 4.02703L2 5.89189L3.4593 7.02703C3.37822 7.35136 3.37814 7.67568 3.37814 8C3.37814 8.32433 3.37822 8.64866 3.4593 8.8919L2 10.027L3.13506 11.8919L4.83784 11.2432C5.32433 11.6487 5.89189 11.973 6.45946 12.2162L6.70255 14H8.89189L9.13498 12.2162C9.78363 12.0541 10.3513 11.6487 10.8378 11.2432L12.5405 11.8919L13.5944 10.027L12.1351 8.8919C12.1351 8.64866 12.2159 8.32433 12.2159 8ZM7.75644 10.027C6.62131 10.027 5.72941 9.13514 5.72941 8C5.72941 6.86487 6.62131 5.97298 7.75644 5.97298C8.89158 5.97298 9.78347 6.86487 9.78347 8C9.78347 9.13514 8.8105 10.027 7.75644 10.027Z" fill="#4866A2"/>
</svg>
