<svg width="32" height="32" viewBox="0 0 32 32" fill="none" xmlns="http://www.w3.org/2000/svg">
<path d="M8.13131 9.20121L4.13151 13.201C2.95431 14.3782 2.95431 16.2868 4.13151 17.464L14.5361 27.8687C15.7133 29.0459 17.622 29.0459 18.7992 27.8687L22.799 23.8689C23.9762 22.6917 23.9762 20.783 22.799 19.6058L12.3943 9.20121C11.2171 8.02401 9.30851 8.02401 8.13131 9.20121Z" fill="#172D3A"/>
<path d="M26.476 15.0827C26.5982 13.7968 26.4345 12.4999 25.9966 11.2847C25.5588 10.0695 24.8576 8.96627 23.9433 8.05393C23.031 7.13962 21.9276 6.43841 20.7125 6.00055C19.4973 5.56269 18.2004 5.39901 16.9146 5.52124" stroke="#172D3A" stroke-width="2" stroke-linecap="round" stroke-linejoin="round"/>
<path d="M29.9575 11.6014C30.0797 10.3155 29.916 9.01857 29.4781 7.80341C29.0403 6.58825 28.339 5.48497 27.4247 4.57263C26.5116 3.65732 25.4071 2.95553 24.1906 2.51763C22.9741 2.07974 21.6757 1.91661 20.3887 2.03994" stroke="#172D3A" stroke-width="2" stroke-linecap="round" stroke-linejoin="round"/>
</svg>
