<svg width="24" height="24" viewBox="0 0 24 24" fill="none" xmlns="http://www.w3.org/2000/svg">
<path d="M12.7197 10C14.9289 10 16.7197 8.20914 16.7197 6C16.7197 3.79086 14.9289 2 12.7197 2C10.5106 2 8.71973 3.79086 8.71973 6C8.71973 8.20914 10.5106 10 12.7197 10Z" stroke="#3738C0" stroke-width="1.5" stroke-miterlimit="10"/>
<path d="M16.16 11.8398C15.04 12.5598 13.76 12.9598 12.4 12.9598C11.04 12.9598 9.75992 12.5598 8.71992 11.8398C5.59992 13.1198 4 17.1198 4 19.5998V21.5198C4 21.7598 4.23998 21.9998 4.47998 21.9998H20.3199C20.5599 21.9998 20.8 21.7598 20.8 21.5198V19.4398C20.72 16.6398 19.28 13.0398 16.16 11.8398Z" stroke="#3738C0" stroke-width="1.5" stroke-miterlimit="10"/>
</svg>
