<svg width="32" height="32" viewBox="0 0 32 32" fill="none" xmlns="http://www.w3.org/2000/svg">
<path d="M22.2529 29.627C22.6434 30.0176 23.2766 30.0176 23.6671 29.627C24.0576 29.2365 24.0576 28.6033 23.6671 28.2128L22.2529 29.627ZM10 15.96L9.29289 15.2529L8.58578 15.96L9.29289 16.6671L10 15.96ZM23.6671 3.70711C24.0576 3.31658 24.0576 2.68342 23.6671 2.29289C23.2766 1.90237 22.6434 1.90237 22.2529 2.29289L23.6671 3.70711ZM23.6671 28.2128L10.7071 15.2529L9.29289 16.6671L22.2529 29.627L23.6671 28.2128ZM10.7071 16.6671L23.6671 3.70711L22.2529 2.29289L9.29289 15.2529L10.7071 16.6671Z" fill="#4866A2"/>
</svg>
