<svg width="32" height="32" viewBox="0 0 32 32" fill="none" xmlns="http://www.w3.org/2000/svg">
<path d="M18.0973 20.6557C20.6214 19.6102 21.8204 16.7163 20.7748 14.1922C19.7293 11.6681 16.8353 10.4696 14.3112 11.5152C11.7871 12.5607 10.5885 15.4544 11.634 17.9785C12.6796 20.5026 15.5732 21.7012 18.0973 20.6557Z" stroke="#172D3A" stroke-width="1.5" stroke-linecap="round" stroke-linejoin="round"/>
<path d="M26.4848 16.0788C26.4835 15.3308 26.4015 14.5852 26.2398 13.8549L29.0763 11.6048C29.2163 11.4941 29.3119 11.3369 29.3457 11.1617C29.3794 10.9866 29.349 10.8051 29.2602 10.6504L27.3778 7.40213C27.2892 7.24658 27.1474 7.1282 26.9785 7.0687C26.8097 7.0092 26.6252 7.01256 26.4587 7.07817L23.0612 8.43527C21.9921 7.46865 20.7297 6.74043 19.3577 6.29894L18.8237 2.63915C18.7984 2.46199 18.71 2.29987 18.5749 2.18248C18.4398 2.0651 18.2673 2.00031 18.0884 2H14.3323C14.1533 2.00031 13.9804 2.0651 13.8453 2.18248C13.7102 2.29987 13.6218 2.46199 13.5965 2.63915L13.054 6.29894C11.6901 6.73846 10.4342 7.46041 9.36797 8.41776L5.86579 7.05191C5.70588 6.99545 5.53113 6.99599 5.37158 7.05343C5.21203 7.11087 5.07747 7.22168 4.99024 7.3671L3.11645 10.6241C3.02763 10.7788 2.9972 10.9603 3.03094 11.1355C3.06469 11.3106 3.16034 11.4679 3.30028 11.5785L6.17188 13.8462C6.01016 14.5794 5.92815 15.3279 5.92692 16.0788C5.92482 16.7759 5.99502 17.4713 6.13683 18.1538L3.28275 20.4215C3.14281 20.5321 3.04716 20.6894 3.01342 20.8645C2.97967 21.0397 3.0101 21.2212 3.09892 21.3759L4.98126 24.6241C5.0699 24.7797 5.2117 24.8981 5.38056 24.9576C5.54941 25.0171 5.73384 25.0137 5.90041 24.9481L9.22775 23.6173C10.316 24.6322 11.6128 25.3972 13.0275 25.8587L13.5444 29.3609C13.5696 29.538 13.6577 29.7001 13.7927 29.8175C13.9278 29.9349 14.1007 29.9997 14.2797 30H18.0358C18.2148 29.9997 18.3877 29.9349 18.5227 29.8175C18.6578 29.7001 18.7459 29.538 18.7711 29.3609L19.279 25.8587C20.7123 25.408 22.0278 24.6456 23.1313 23.626L26.4411 24.9393C26.6067 25.0057 26.7906 25.0104 26.9593 24.9525C27.128 24.8947 27.2703 24.7781 27.3603 24.6241L29.2341 21.3671C29.3229 21.2124 29.3529 21.0309 29.3192 20.8558C29.2854 20.6806 29.1902 20.5234 29.0503 20.4128L26.2569 18.2064C26.406 17.5069 26.4825 16.794 26.4848 16.0788V16.0788Z" stroke="#172D3A" stroke-width="1.5" stroke-linecap="round" stroke-linejoin="round"/>
</svg>
