<svg width="16" height="16" viewBox="0 0 16 16" fill="none" xmlns="http://www.w3.org/2000/svg">
<path d="M6.53033 3.46967C6.23744 3.17678 5.76256 3.17678 5.46967 3.46967C5.17678 3.76256 5.17678 4.23744 5.46967 4.53033L6.53033 3.46967ZM10.5 8.5L11.0303 9.03033L11.5607 8.5L11.0303 7.96967L10.5 8.5ZM5.46967 12.4697C5.17678 12.7626 5.17678 13.2374 5.46967 13.5303C5.76256 13.8232 6.23744 13.8232 6.53033 13.5303L5.46967 12.4697ZM5.46967 4.53033L9.96968 9.03033L11.0303 7.96967L6.53033 3.46967L5.46967 4.53033ZM9.96968 7.96967L5.46967 12.4697L6.53033 13.5303L11.0303 9.03033L9.96968 7.96967Z" fill="#3738C0"/>
</svg>
