<svg width="32" height="32" viewBox="0 0 32 32" fill="none" xmlns="http://www.w3.org/2000/svg">
<path d="M3.29289 22.2529C2.90237 22.6434 2.90237 23.2766 3.29289 23.6671C3.68342 24.0576 4.31658 24.0576 4.70711 23.6671L3.29289 22.2529ZM16.96 10L17.6671 9.29289L16.96 8.58578L16.2529 9.29289L16.96 10ZM29.2128 23.6671C29.6033 24.0576 30.2365 24.0576 30.627 23.6671C31.0176 23.2766 31.0176 22.6434 30.627 22.2529L29.2128 23.6671ZM4.70711 23.6671L17.6671 10.7071L16.2529 9.29289L3.29289 22.2529L4.70711 23.6671ZM16.2529 10.7071L29.2128 23.6671L30.627 22.2529L17.6671 9.29289L16.2529 10.7071Z" fill="#4866A2"/>
</svg>
