<svg width="16" height="16" viewBox="0 0 16 16" fill="none" xmlns="http://www.w3.org/2000/svg">
<path d="M12.7143 14H2.42857C2.17143 14 2 13.8286 2 13.5715V3.28575C2 3.02861 2.17143 2.85718 2.42857 2.85718H12.7143C12.9714 2.85718 13.1429 3.02861 13.1429 3.28575V13.5715C13.2286 13.8286 12.9714 14 12.7143 14Z" stroke="#172D3A" stroke-width="0.75" stroke-miterlimit="10" stroke-linecap="round" stroke-linejoin="round"/>
<path d="M5.51465 3.71429V2" stroke="#172D3A" stroke-width="0.75" stroke-miterlimit="10" stroke-linecap="round" stroke-linejoin="round"/>
<path d="M9.80078 3.71429V2" stroke="#172D3A" stroke-width="0.75" stroke-miterlimit="10" stroke-linecap="round" stroke-linejoin="round"/>
<path d="M6.11426 7.14279V6.71422C6.11426 6.45707 6.28569 6.28564 6.54283 6.28564H8.68569C8.94283 6.28564 9.11426 6.45707 9.11426 6.71422V8.59993H7.82854H9.11426V10.9999C9.11426 11.2571 8.94283 11.4285 8.68569 11.4285H7.82854H6.54283C6.28569 11.4285 6.11426 11.2571 6.11426 10.9999V10.5714" stroke="#172D3A" stroke-width="0.75" stroke-miterlimit="10" stroke-linecap="round" stroke-linejoin="round"/>
</svg>
