<svg width="32" height="32" viewBox="0 0 32 32" fill="none" xmlns="http://www.w3.org/2000/svg">
<path d="M26.8 4.3999H6" stroke="#4866A2" stroke-width="1.5" stroke-linecap="round" stroke-linejoin="round"/>
<path d="M16.3999 8.3999V25.9999" stroke="#4866A2" stroke-width="1.5" stroke-linecap="round" stroke-linejoin="round"/>
<path d="M12.3999 8.3999V25.9999" stroke="#4866A2" stroke-width="1.5" stroke-linecap="round" stroke-linejoin="round"/>
<path d="M20.3999 8.3999V25.9999" stroke="#4866A2" stroke-width="1.5" stroke-linecap="round" stroke-linejoin="round"/>
<path d="M14.0002 2H18.8002C19.0124 2 19.2158 2.08429 19.3659 2.23431C19.5159 2.38434 19.6002 2.58783 19.6002 2.8V4.4H13.2002V2.8C13.2002 2.58783 13.2845 2.38434 13.4345 2.23431C13.5846 2.08429 13.788 2 14.0002 2V2Z" stroke="#4866A2" stroke-width="1.5" stroke-linecap="round" stroke-linejoin="round"/>
<path d="M7.6001 4.3999H25.2001V28.3999C25.2001 28.8242 25.0315 29.2312 24.7315 29.5313C24.4314 29.8313 24.0244 29.9999 23.6001 29.9999H9.2001C8.77575 29.9999 8.36878 29.8313 8.06873 29.5313C7.76867 29.2312 7.6001 28.8242 7.6001 28.3999V4.3999Z" stroke="#4866A2" stroke-width="1.5" stroke-linecap="round" stroke-linejoin="round"/>
</svg>
